<?xml version="1.0" standalone="no"?>
<!DOCTYPE svg PUBLIC "-//W3C//DTD SVG 1.1//EN" "http://www.w3.org/Graphics/SVG/1.1/DTD/svg11.dtd" >
<svg xmlns="http://www.w3.org/2000/svg">
<metadata>
<json>
<![CDATA[
{
	"fontFamily": "byron",
	"fontURL": "http://woothemes.com",
	"designer": "James Koster",
	"designerURL": "http://jameskoster.co.uk",
	"license": "SIL OFL",
	"licenseURL": "http://scripts.sil.org/cms/scripts/page.php?site_id=nrsi&id=OFL",
	"description": "Font generated by IcoMoon.",
	"copyright": "Copyright © 2015 Perxis.com. All Rights Reserved.",
	"majorVersion": 0,
	"version": "Version 1.0",
	"fontId": "byron",
	"psName": "byron",
	"subFamily": "Regular",
	"fullName": "byron"
}
]]>
</json>
</metadata>
<defs>
<font id="byron" horiz-adv-x="1024">
<font-face units-per-em="1024" ascent="896" descent="-128" />
<missing-glyph horiz-adv-x="1024" />
<glyph unicode="&#x20;" horiz-adv-x="400" d="" />
<glyph unicode="&#xe900;" glyph-name="elevator" data-tags="elevator" d="M874.58-1.568v802.482h-725.16v-802.482h-80.456v-31.346h886.074v31.346h-80.458zM496.326-1.568h-211.068v666.646h211.070v-666.646zM738.742-1.568h-211.068v666.646h211.070v-666.646zM843.232-1.568h-73.142v697.992h-516.18v-697.992h-73.142v771.136h662.466v-771.136zM790.988 433.632h31.346v-31.348h-31.346v31.348zM790.988 365.714h31.346v-31.346h-31.346v31.346zM427.886 748.67h31.346v-31.346h-31.346v31.346zM495.804 748.67h31.346v-31.346h-31.346v31.346zM564.768 748.67h31.346v-31.346h-31.346v31.346zM992.654-1.568h31.346v-31.346h-31.346v31.346zM0-1.568h31.346v-31.346h-31.346v31.346z" />
<glyph unicode="&#xe901;" glyph-name="air-conditioner-1" data-tags="air-conditioner-1" d="M782.628 325.486h31.346v-31.346h-31.346v31.346zM850.546 325.486h31.348v-31.346h-31.348v31.346zM919.51 325.486h31.346v-31.346h-31.346v31.346zM254.956 601.338h31.346v-31.346h-31.346v31.346zM323.918 601.338v-31.346h668.734v-313.47h-961.306v313.47h187.036v31.346h-218.382v-363.332l26.756-71.346h970.49l26.754 71.346v363.332h-700.082zM975.52 198.008h-927.042l-10.188 27.168h947.42l-10.19-27.168zM73.142 532.376h877.714v-31.346h-877.714v31.346zM73.142 463.412h877.714v-31.346h-877.714v31.346zM73.142 394.448h877.714v-31.346h-877.714v31.346z" />
<glyph unicode="&#xe902;" glyph-name="air-conditioner" data-tags="air-conditioner" d="M957.314 649.090v67.19h-678.144v-31.348h646.798v-601.866h-894.62v601.868h142.286v31.346h-173.634v-664.56h957.314v68.162h66.686v529.208h-66.686zM992.652 151.228h-35.338v466.516h35.338v-466.516zM336.334 654.326c-149.060 0-270.326-121.268-270.326-270.326s121.266-270.326 270.326-270.326 270.326 121.266 270.326 270.326-121.266 270.326-270.326 270.326zM336.332 622.976c20.096 0 39.616-2.506 58.274-7.2l-273.216-127.39c38.822 79.608 120.578 134.59 214.942 134.59zM97.356 384c0 21.604 2.898 42.54 8.298 62.46l331.080 154.37c19.364-9.002 37.326-20.522 53.47-34.14l-392.842-183.174c0 0.162-0.006 0.322-0.006 0.484zM99.778 350.054l414.504 193.276c12.1-13.5 22.692-28.378 31.504-44.37l-161.778-75.438c-11.372 13.696-28.522 22.434-47.672 22.434-34.162 0-61.956-27.794-61.956-61.954 0-3.798 0.362-7.51 1.020-11.122l-161.806-75.46c-6.522 16.718-11.204 34.346-13.816 52.634zM366.942 384c0-16.878-13.73-30.61-30.608-30.61-16.88 0-30.61 13.732-30.61 30.61s13.73 30.608 30.61 30.608c16.878 0 30.608-13.73 30.608-30.608zM126.886 269.032l161.776 75.446c11.374-13.694 28.522-22.432 47.67-22.432 34.162 0 61.954 27.794 61.954 61.956 0 3.798-0.362 7.508-1.020 11.12l161.808 75.45c6.52-16.718 11.202-34.346 13.814-52.632l-414.488-193.286c-12.104 13.502-22.698 28.382-31.514 44.378zM336.332 145.022c-20.086 0-39.596 2.504-58.248 7.192l273.18 127.382c-38.818-79.598-120.572-134.574-214.932-134.574zM235.956 167.156c-19.368 9.002-37.334 20.522-53.48 34.14l392.828 183.18c0-0.158 0.006-0.318 0.006-0.476 0-21.61-2.9-42.552-8.302-62.478l-331.052-154.366zM210.214 716.28h31.348v-31.348h-31.348v31.348zM638.626 576.342h246.598v-31.348h-246.598v31.348zM853.876 654.334h31.348v-31.348h-31.348v31.348zM638.626 654.334h178.678v-31.348h-178.678v31.348z" />
<glyph unicode="&#xe903;" glyph-name="balcony" data-tags="balcony" d="M221.518 896h580.964v-31.346h-580.964v31.346zM244.506 851.070v-31.348h29.778v-159.346h31.348v159.346h190.694v-439.902h31.346v439.902h190.694v-439.902h31.348v439.902h29.778v31.348zM823.728-19.212v126.054c17.89 6.442 30.72 23.58 30.72 43.662s-12.83 37.222-30.72 43.662v95.794h-31.348v-95.792c-17.89-6.442-30.72-23.58-30.72-43.662s12.83-37.222 30.72-43.662v-126.054h-116.68v126.054c17.89 6.442 30.72 23.58 30.72 43.662s-12.83 37.222-30.72 43.662v126.052h194.698v31.344h-716.8v-31.348h46.672v-126.052c-17.89-6.442-30.72-23.58-30.72-43.662s12.83-37.222 30.72-43.662v-126.054h-46.672v-15.674c0-51.342 41.77-93.112 93.116-93.112h530.572c51.344 0 93.114 41.77 93.114 93.116v15.674h-46.672zM808.052 165.552c8.296 0 15.046-6.75 15.046-15.046s-6.75-15.046-15.046-15.046-15.046 6.75-15.046 15.046c0.002 8.294 6.752 15.046 15.046 15.046zM660.026 165.552c8.296 0 15.046-6.752 15.046-15.046 0-8.296-6.75-15.046-15.046-15.046s-15.046 6.75-15.046 15.046 6.748 15.046 15.046 15.046zM527.672 106.842c17.89 6.442 30.72 23.58 30.72 43.662s-12.83 37.222-30.72 43.662v126.054h116.68v-126.052c-17.89-6.442-30.72-23.58-30.72-43.662s12.83-37.222 30.72-43.662v-126.054h-116.68v126.052zM511.998 165.552c8.296 0 15.046-6.75 15.046-15.046s-6.75-15.046-15.046-15.046c-8.296-0.002-15.046 6.75-15.046 15.046s6.75 15.046 15.046 15.046zM379.644 106.842c17.89 6.442 30.72 23.58 30.72 43.662s-12.83 37.222-30.72 43.662v126.054h116.682v-126.052c-17.89-6.442-30.72-23.58-30.72-43.662s12.83-37.222 30.72-43.662v-126.054h-116.682v126.052zM363.972 165.552c8.296 0 15.046-6.752 15.046-15.046 0-8.296-6.75-15.046-15.046-15.046s-15.046 6.75-15.046 15.046 6.75 15.046 15.046 15.046zM231.618 106.84c17.89 6.442 30.72 23.58 30.72 43.662s-12.83 37.222-30.72 43.662v126.052h116.68v-126.052c-17.89-6.442-30.72-23.58-30.72-43.662s12.83-37.222 30.72-43.662v-126.054h-116.68v126.054zM215.944 165.552c8.296 0 15.046-6.75 15.046-15.046s-6.75-15.046-15.046-15.046c-8.296-0.002-15.046 6.75-15.046 15.046s6.75 15.046 15.046 15.046zM777.284-96.654h-530.57c-28.646 0-52.798 19.6-59.754 46.094h650.076c-6.954-26.492-31.106-46.094-59.752-46.094zM274.284 623.804h31.346v-31.346h-31.346v31.346zM274.284 554.84h31.346v-175.020h-31.346v175.020zM332.626 588.765l77.92 111.283 25.68-17.981-77.92-111.283-25.68 17.981zM362.758 533.141l77.92 111.283 25.68-17.981-77.92-111.283-25.68 17.981zM557.667 588.788l77.92 111.283 25.68-17.981-77.92-111.283-25.68 17.981zM587.853 533.137l77.92 111.283 25.68-17.981-77.92-111.283-25.68 17.981z" />
<glyph unicode="&#xe904;" glyph-name="blueprint-1" data-tags="blueprint-1" d="M570.068 813.65v82.35h-114.022v-82.35h-327.29v-546.886h34.84v-49.62h182.15l-171.612-330.55 28.11-14.592 113.962 219.504h179.958v-149.918h31.674v275.554h116.838l48.782-93.964h-65.322v-31.672h81.766l113.96-219.506 28.11 14.592-171.612 330.55h180.042v49.62h34.84v546.888h-325.174zM487.718 864.328h50.676v-50.676h-50.676v50.676zM496.164 123.18h-163.512l48.782 93.964h114.73v-93.964zM828.73 248.816h-633.46v17.948h633.46v-17.948zM863.57 298.436h-703.14v483.542h703.14v-483.542zM559.514 123.18h31.672v-31.672h-31.672v31.672zM434.93 604.608v71.792h76.014v31.674h-255.496v-335.734h202.708v31.674h-171.034v99.242h116.134v-65.458h31.674v120.356h-31.674v-23.226h-116.134v141.472h116.134v-71.792zM557.398 708.074v-31.674h38.008v-33.784h-30.618v-84.462h31.672v52.788h140.416v-206.93h-116.134v87.628h86.572v31.672h-118.246v-119.302h-84.462v-31.672h263.942v335.736h-211.15zM641.86 642.616h-14.78v33.784h14.78v-33.784zM688.312 642.616h-14.78v33.784h14.78v-33.784zM736.878 642.616h-16.892v33.784h16.892v-33.784z" />
<glyph unicode="&#xe905;" glyph-name="blueprint-2" data-tags="blueprint-2" d="M152.262 702.004v-717.702h717.702v717.702h-717.702zM373.326 15.478h-189.888v474.274h189.886v-474.274zM838.788 15.478l-434.284 0.002v474.272h434.284v-474.274zM838.788 520.928h-655.346v149.896h655.348v-149.896zM666.684 856.036l-22.050-22.044 26.3-26.298h-253.146v-31.178h253.148l-26.302-26.3 22.050-22.044 63.932 63.932zM312.824 807.694h-253.144l26.296 26.298-22.044 22.044-63.932-63.932 63.932-63.932 22.044 22.044-26.296 26.3h253.144zM349.206 807.694h31.178v-31.178h-31.178v31.178zM960.066 642.576l-63.934-63.93 22.048-22.046 26.298 26.298v-253.146h31.176v253.146l26.3-26.298 22.046 22.046zM1001.954-2.060l-26.3-26.298v253.146h-31.176v-253.146l-26.298 26.298-22.048-22.046 63.934-63.93 63.934 63.93zM944.486 293.384h31.178v-31.178h-31.178v31.178z" />
<glyph unicode="&#xe906;" glyph-name="blueprint" data-tags="blueprint" d="M67.918 54.858c-20.164 0-36.572 16.406-36.572 36.572s16.408 36.57 36.572 36.57c20.164 0 36.572-16.406 36.572-36.572h31.346v569.47h104.49v31.346h-106.312c-2.856 12.156-9.020 23.312-18.066 32.354-12.82 12.828-29.88 19.89-48.030 19.89-37.45 0.002-67.918-30.466-67.918-67.916v-585.142c0-37.452 30.468-67.918 67.918-67.918h610.22v31.346h-610.22zM31.346 676.572c0 20.164 16.406 36.572 36.572 36.572 9.776 0 18.96-3.802 25.866-10.708 6.904-6.902 10.706-16.088 10.706-25.864v-527.956c-10.566 6.782-23.112 10.732-36.572 10.732s-26.006-3.952-36.572-10.732v527.956zM714.71 54.858h31.346v-31.346h-31.346v31.346zM956.082 744.49c-18.15 0-35.208-7.064-48.028-19.888-9.046-9.044-15.212-20.202-18.068-32.356h-544.124v-31.346h542.302v-569.47h31.348c0 20.164 16.406 36.572 36.572 36.572s36.572-16.406 36.572-36.572-16.406-36.572-36.572-36.572h-172.408v-31.346h172.408c37.452 0 67.918 30.468 67.918 67.918v585.142c-0.002 37.45-30.47 67.918-67.92 67.918zM992.654 148.616c-10.566 6.78-23.112 10.732-36.572 10.732s-26.006-3.952-36.572-10.732v527.956c0 9.776 3.802 18.96 10.708 25.866 6.902 6.904 16.088 10.706 25.864 10.706 20.164 0 36.572-16.406 36.572-36.572v-527.956zM320.784 199.054v198.53h30.302v31.346h-61.648v-45.976h-33.438v185.992h53.29v31.346h-84.636v-432.588h151.51v31.346h-55.38zM289.436 199.054h-33.436v14.628h33.436v-14.628zM289.436 245.028h-33.436v14.628h33.436v-14.628zM289.436 291.004h-33.436v14.628h33.436v-14.628zM289.436 336.98h-33.436v14.628h33.436v-14.628zM797.258 389.224v211.070h-396.018v-31.346h95.086v-140.016h-30.302v-31.346h30.302v-37.616h110.76v-84.636h31.346v84.636h74.188v31.348h-184.946v177.632h238.236v-369.894h-127.478v30.302h-31.346v-30.302h-161.96v-31.346h352.13v73.142h54.334v148.376h-54.332zM820.244 272.196h-22.988v85.682h22.988v-85.682zM276.898 692.244h31.346v-31.346h-31.346v31.346z" />
<glyph unicode="&#xe907;" glyph-name="box" data-tags="box" d="M851.558 518.262l164.388 164.388h-264.206l-148.262-148.262h-411.586l-116.998 116.996h176.468l101.898-101.73 21.918 21.954-110.98 110.798h-264.198l162.622-162.624-162.622-162.616h470.124l124.266 124.264v-365.056h-395.228v144.772h-31.022v-175.796h675.548v271.816h180.312l-172.442 161.096zM457.276 388.188h-382.378l115.18 115.18h382.38l-115.182-115.18zM812.666 116.376h-187.252v386.992h187.252v-386.992zM823.812 534.39h-176.462l117.24 117.238h176.462l-117.24-117.238zM843.69 483.162l101.662-94.974h-101.662v94.974zM168.144 328.37h31.022v-31.022h-31.022v31.022z" />
<glyph unicode="&#xe908;" glyph-name="brickwall-1" data-tags="brickwall-1" d="M496.326 713.142h31.346v-31.346h-31.346v31.346zM642.612 295.184v177.632h112.848v240.326h-190.172v-31.346h158.824v-177.632h-376.16v177.632h111.804v31.346h-459.756v-658.286h1024v240.328h-381.388zM611.266 472.816v-177.632h-386.612v177.632h386.612zM31.346 681.796h285.258v-177.632h-256v-31.346h132.702v-177.632h-161.96v386.61zM335.934 86.204h-304.588v177.632h304.588v-177.632zM768 86.204h-400.718v177.632h400.718v-177.632zM992.654 86.204h-193.306v177.632h193.306v-177.632z" />
<glyph unicode="&#xe909;" glyph-name="brickwall" data-tags="brickwall" d="M496.326 713.142h31.346v-31.346h-31.346v31.346zM565.29 713.142v-31.346h158.824v-177.632h-376.162v177.632h111.804v31.346h-459.756v-658.286h1024v658.286h-458.71zM611.266 472.816v-177.632h-386.612v177.632h386.612zM31.346 681.796h285.258v-177.632h-256v-31.346h132.702v-177.632h-161.96v386.61zM335.934 86.204h-304.588v177.632h304.588v-177.632zM768 86.204h-400.718v177.632h400.718v-177.632zM992.654 86.204h-193.306v177.632h95.086v31.346h-251.82v177.632h350.040v-386.61zM992.654 504.164h-237.192v177.632h237.192v-177.632zM932.048 295.184h31.346v-31.346h-31.346v31.346z" />
<glyph unicode="&#xe90a;" glyph-name="building-1" data-tags="building-1" d="M245.836 828.082v-63.74h31.346v32.392h240.326v-32.392h31.348v63.74zM245.836 114.068v-63.74h31.346v32.392h138.972v31.348zM245.836 256.872v-63.74h31.346v32.392h138.972v31.348zM245.836 399.674v-63.74h31.346v32.392h138.972v31.348zM245.836 542.476v-63.74h31.346v32.392h138.972v31.348zM245.836 685.278v-63.738h31.346v32.39h240.326v-32.39h31.348v63.738zM161.674 896v-1024h95.37v31.346h-64.022v961.308h420.806v-145.242h31.346v176.588zM613.836 682.84h31.346v-31.346h-31.346v31.346zM645.174 552.228v61.65h-31.346v-61.65h-167.56v-648.882h-84.636v-31.346h500.694v680.228h-217.152zM830.978-96.654h-353.364v617.536h353.364v-617.536zM525.726 483.266v-63.74h31.346v32.392h194.446v-32.392h31.346v63.74zM525.726 351.608v-63.738h31.346v32.392h194.446v-32.392h31.346v63.738zM525.726 219.952v-63.74h31.346v32.392h194.446v-32.392h31.346v63.74zM525.726 88.294v-63.738h31.346v32.39h194.446v-32.39h31.346v63.738zM293.7-96.654h31.346v-31.346h-31.346v31.346z" />
<glyph unicode="&#xe90b;" glyph-name="building" data-tags="building" d="M570.254 618.13v-178.678h31.346v147.332h36.31v-147.332h31.348v147.332h36.31v-147.332h31.346v178.678zM475.428 827.11h355.266v-31.346h-355.266v31.346zM415.87 781.28v-31.346h53.29v-811.134h72.098v31.348h-40.752v779.786h306.156v-337.648h31.346v337.648h52.246v31.346zM570.222 381.984v-443.18h453.778v443.18h-453.778zM924.060-29.852h-253.896v38.174h238.898v31.346h-238.898v38.176h253.896v-107.696zM924.060 178.716h-171.734v-31.346h171.734v-38.176h-253.896v107.698h253.896v-38.176zM992.654-29.852h-37.246v278.088h-316.59v-278.088h-37.248v380.488h391.084v-380.488zM101.094 618.13v-178.678h31.346v147.332h36.312v-147.332h31.346v147.332h36.31v-147.332h31.348v178.678zM101.094 296.302v-178.678h31.346v147.33h36.312v-147.33h31.346v147.33h36.31v-147.33h31.348v178.678zM157.78 829.2v-52.244h-157.78v-838.152h368.848v890.396h-211.068zM337.502-29.85h-306.156v775.458h157.78v52.244h148.376v-827.702zM684.408 178.72h31.346v-31.346h-31.346v31.346z" />
<glyph unicode="&#xe90c;" glyph-name="calculator" data-tags="calculator" d="M344.87 714.056c-2.010 4.202-4.866 7.812-8.566 10.826-3.702 3.010-8.224 5.52-13.556 7.53-5.336 2.006-11.268 3.888-17.792 5.646l-4.706 1.132v32.572c3.64-0.38 7.154-1.102 10.544-2.166 3.388-1.072 6.496-2.26 9.32-3.58 2.824-1.316 5.272-2.606 7.342-3.858 2.070-1.26 3.484-2.324 4.236-3.202l11.484 21.086c-5.272 3.64-11.39 6.84-18.356 9.602s-14.592 4.454-22.876 5.084v19.016h-11.296v-19.204c-6.024-0.502-11.672-1.758-16.944-3.764-5.272-2.010-9.822-4.772-13.65-8.286-3.83-3.514-6.842-7.75-9.038-12.706-2.198-4.96-3.294-10.578-3.294-16.85 0-5.148 0.782-9.572 2.354-13.276 1.568-3.704 3.922-6.966 7.060-9.79 3.136-2.824 7.060-5.272 11.768-7.342 4.706-2.072 10.26-3.988 16.662-5.744 1.13-0.376 2.26-0.724 3.388-1.034 1.13-0.314 2.26-0.596 3.388-0.85v-32.38c-4.518 0.498-8.882 1.44-13.084 2.824-4.206 1.38-8.036 2.852-11.484 4.424-3.454 1.568-6.402 3.168-8.848 4.802-2.448 1.63-4.176 2.946-5.178 3.952l-11.484-22.402c6.778-4.772 14.338-8.634 22.688-11.578 8.346-2.95 16.914-4.736 25.7-5.364v-20.898h11.296v20.71c6.148 0.254 12.018 1.162 17.604 2.73 5.584 1.568 10.478 3.922 14.686 7.060 4.204 3.134 7.532 7.154 9.978 12.050 2.448 4.896 3.672 10.794 3.672 17.696-0.006 6.146-1.012 11.324-3.018 15.532zM292.342 741.45c-6.024 1.758-10.514 3.73-13.462 5.928-2.952 2.194-4.424 5.43-4.424 9.696 0 9.16 5.96 14.12 17.886 14.876v-30.5zM300.248 682.144v30.31c6.274-2.006 11.17-4.204 14.686-6.588 3.512-2.386 5.272-5.716 5.272-9.98 0-8.784-6.654-13.366-19.958-13.742zM353.068 75.964v-135.976h135.976v135.976h-135.976zM457.664-28.634h-73.218v73.218h73.218v-73.218zM532.974 75.964v-135.976h135.976v135.976h-135.976zM637.57-28.634h-73.218v73.218h73.218v-73.218zM353.068 249.594v-135.976h135.976v135.976h-135.976zM457.664 144.996h-73.218v73.218h73.218v-73.218zM532.974 249.594v-135.976h135.976v135.976h-135.976zM637.57 144.996h-73.218v73.218h73.218v-73.218zM353.068 423.224v-135.976h135.976v135.976h-135.976zM457.664 318.628h-73.218v73.218h73.218v-73.218zM700.328 423.224v-135.976h135.976v135.976h-135.976zM804.924 318.628h-73.218v73.218h73.218v-73.218zM532.974 423.224v-135.976h135.976v135.976h-135.976zM637.57 318.628h-73.218v73.218h73.218v-73.218zM284.146 513.176h31.378v-31.378h-31.378v31.378zM466.192 765.254c-20.306 75.222-89.1 130.746-170.652 130.746-97.47 0-176.768-79.296-176.768-176.768s79.298-176.768 176.768-176.768c20.14 0 39.482 3.43 57.528 9.662v-69.556h483.236v214.696h-365.408c0.898 7.202 1.414 14.522 1.414 21.966 0 4.934-0.256 9.81-0.654 14.644h402.194v-830.496h-558.326v541.808h-31.38v-573.188h621.084v893.254h-439.036zM295.54 573.842c-80.166 0-145.39 65.222-145.39 145.39 0 80.166 65.222 145.39 145.39 145.39 80.166 0 145.39-65.222 145.39-145.39-0.002-80.168-65.224-145.39-145.39-145.39zM804.924 665.888v-151.938h-420.478v52.598c37.5 21.922 66.254 57.222 79.616 99.342 0.002-0.002 340.862-0.002 340.862-0.002zM700.336 87.468h31.378v-31.38h-31.378v31.38zM700.328 249.594v-124.47h31.38v93.090h73.216v-246.848h-73.216v48.116h-31.38v-79.494h135.976v309.606z" />
<glyph unicode="&#xe90d;" glyph-name="certificate" data-tags="certificate" d="M303.020 406.612h417.96v-31.346h-417.96v31.346zM806.868 144.768c2.876 4.738 6.15 10.14 8.43 16.296h208.702v643.658h-240.326v-31.346h68.712c7.41-73.896 66.372-132.858 140.268-140.268v-300.428c-73.896-7.41-132.858-66.372-140.268-140.268h-37.508c-2.25 5.706-5.304 10.752-8.008 15.206-2.068 3.406-4.022 6.622-5.166 9.376-1.244 3-2.2 6.81-3.214 10.844-2.336 9.3-5.244 20.87-13.998 29.63-8.756 8.754-20.33 11.664-29.626 13.998-4.038 1.014-7.848 1.97-10.848 3.216-2.752 1.144-5.968 3.094-9.374 5.164-8.28 5.028-18.586 11.286-31.424 11.286s-23.142-6.256-31.422-11.284c-3.406-2.068-6.622-4.022-9.38-5.166-3-1.246-6.812-2.202-10.848-3.216-9.296-2.334-20.866-5.242-29.622-13.996-8.756-8.758-11.664-20.332-14-29.632-1.014-4.036-1.97-7.846-3.214-10.844-1.144-2.754-3.098-5.97-5.166-9.376-2.704-4.454-5.758-9.5-8.010-15.206h-419.944c-7.41 73.896-66.372 132.858-140.268 140.268v300.428c73.896 7.41 132.856 66.372 140.268 140.268h506.524v31.346h-678.138v-643.658h591.134c2.28-6.156 5.554-11.558 8.43-16.296 2.066-3.404 4.022-6.62 5.164-9.37 0.296-0.716 0.574-1.486 0.844-2.286l-78.196-78.198 67.26-24.368 24.344-67.268 84.236 84.236 84.236-84.236 24.344 67.268 67.26 24.368-78.196 78.198c0.27 0.8 0.548 1.568 0.844 2.284 1.142 2.752 3.096 5.968 5.164 9.372zM883.962 773.374h108.69v-108.69c-56.588 7.132-101.558 52.102-108.69 108.69zM992.654 301.102v-108.69h-108.69c7.13 56.592 52.1 101.562 108.69 108.69zM31.346 773.374h108.69c-7.13-56.59-52.1-101.56-108.69-108.69v108.69zM31.346 192.412v108.69c56.59-7.13 101.56-52.1 108.69-108.69h-108.69zM631.678 20.306l-12.56 34.714-34.724 12.58 32.928 32.926c1.334-1.954 2.852-3.838 4.62-5.606 8.756-8.754 20.33-11.664 29.63-13.998 4.036-1.014 7.846-1.97 10.844-3.214 2.752-1.144 5.968-3.094 9.374-5.164 2.38-1.446 4.936-2.99 7.664-4.462l-47.776-47.776zM703.214 92.606c-4.064 0-9.45 3.272-15.154 6.734-4.264 2.59-8.67 5.268-13.64 7.328-5.13 2.128-10.256 3.414-15.214 4.658-6.132 1.54-12.47 3.132-15.1 5.762-2.632 2.634-4.222 8.972-5.764 15.102-1.246 4.958-2.532 10.084-4.66 15.216-2.058 4.968-4.738 9.374-7.326 13.638-3.46 5.7-6.734 11.086-6.734 15.154 0.002 4.064 3.272 9.448 6.736 15.15 2.59 4.266 5.266 8.674 7.326 13.642 2.13 5.132 3.416 10.256 4.66 15.216 1.54 6.132 3.132 12.47 5.766 15.1 2.63 2.632 8.966 4.224 15.092 5.762 4.962 1.246 10.090 2.534 15.222 4.664 4.968 2.058 9.376 4.738 13.642 7.326 5.698 3.462 11.084 6.734 15.148 6.734s9.45-3.27 15.154-6.734c4.264-2.59 8.67-5.268 13.638-7.326 5.132-2.13 10.26-3.418 15.22-4.664 6.13-1.538 12.466-3.13 15.096-5.764 2.63-2.628 4.222-8.968 5.764-15.098 1.246-4.958 2.532-10.084 4.66-15.216 2.058-4.968 4.738-9.376 7.326-13.642 3.462-5.7 6.734-11.084 6.734-15.148 0-4.066-3.27-9.452-6.734-15.154-2.59-4.264-5.266-8.672-7.326-13.638-2.13-5.132-3.418-10.26-4.664-15.22-1.538-6.13-3.13-12.466-5.764-15.098-2.632-2.632-8.968-4.224-15.098-5.762-4.958-1.246-10.084-2.532-15.216-4.66-4.968-2.058-9.376-4.738-13.642-7.326-5.698-3.466-11.082-6.736-15.148-6.736zM822.038 67.598l-34.724-12.578-12.562-34.714-47.774 47.774c2.728 1.472 5.28 3.016 7.662 4.462 3.406 2.068 6.622 4.022 9.376 5.166 2.998 1.244 6.81 2.2 10.844 3.214 9.298 2.334 20.87 5.242 29.63 13.998 1.768 1.768 3.286 3.652 4.62 5.606l32.928-32.928zM301.976 498.562h489.012v-31.346h-489.012v31.346zM233.012 498.562h31.348v-31.346h-31.348v31.346zM233.012 590.514h489.012v-31.346h-489.012v31.346zM759.64 590.514h31.346v-31.346h-31.346v31.346zM714.71 804.722h31.346v-31.348h-31.346v31.348z" />
<glyph unicode="&#xe90e;" glyph-name="chat" data-tags="chat" d="M730.384 595.382h31.346v-31.346h-31.346v31.346zM798.302 595.372v-31.346h194.352v-497.17l-124.83 124.832h-514.606v150.096h348.902v435.038h-702.12v-281.778h31.346v250.43h639.426v-372.344h-514.964l-124.462-124.462v140.84h-31.346v-216.516l168.79 168.792h153.080v-181.442h532.97l169.16-169.164v604.194zM0 458.48h31.346v-31.346h-31.346v31.346zM351.056 683.758l-135.402-87.616 17.024-26.322 19.022 12.306v-144.28l198.712 0.002v144.284l19.026-12.312 17.028 26.318-135.41 87.62zM419.066 469.192h-136.018v133.216l68.012 44.010 68.006-44.004v-133.222z" />
<glyph unicode="&#xe90f;" glyph-name="check" data-tags="check" d="M123.298 231.276h317.648v-31.346h-317.648v31.346zM238.236 411.418h31.348v-31.346h-31.348v31.346zM635.298 141.206h196.44v-31.346h-196.44v31.346zM869.356 141.206h31.346v-31.346h-31.346v31.346zM880.752 501.484l141.816 141.816-104.916 104.916-53.11-53.112-32.822 32.822-123.914-123.912 22.166-22.166 101.748 101.748 10.656-10.656-261.53-261.53h-274.69v-31.346h243.344l-23.88-23.882-11.334-34.838h-390.988v-31.346h380.79l-29.054-89.316 155.502 50.586 38.73 38.73h231.436v31.346h-200.090l58.724 58.724h141.366v31.346h-110.022l58.724 58.724h143.25v-419.004h-961.308v419.002h497.372v31.346h-528.718v-481.698h1024v481.7h-143.248zM917.652 703.884l60.586-60.586-30.946-30.946-60.586 60.586 30.946 30.946zM523.89 249.536l22.464 69.060 46.594-46.596-69.058-22.464zM622.112 287.172l-60.586 60.586 303.016 303.016 60.584-60.588-303.014-303.014zM566.334 501.488h31.346v-31.346h-31.346v31.346z" />
<glyph unicode="&#xe910;" glyph-name="compass" data-tags="compass" d="M550.487 321.416l29.807 9.401 9.861-31.266-29.807-9.401-9.861 31.266zM764.13 154.198h-65.616l-102.478 324.852c7.522 13.67 11.814 29.38 11.814 46.050 0 47.53-34.778 87.078-80.224 94.558v76.306h31.256v200.036h-93.768v-200.036h31.256v-76.306c-45.446-7.48-80.224-47.030-80.224-94.558 0-16.67 4.272-32.36 11.794-46.030l-102.456-324.872h-65.616v-31.256h55.76l-31.506-99.894 47.636-151.048 79.14 250.942h54.218v-4.168c0-25.858 21.024-46.884 46.884-46.884 25.858 0 46.884 21.024 46.884 46.884v4.168h54.218l79.14-250.942 47.634 151.048-31.506 99.894h55.76v31.256zM496.372 864.744h31.256v-137.524h-31.256v137.524zM512 589.694c35.61 0 64.596-28.984 64.596-64.596 0-10.19-2.376-19.858-6.606-28.442-2.25-4.564-5.022-8.834-8.252-12.732-11.856-14.294-29.756-23.422-49.738-23.422s-37.882 9.126-49.738 23.422c-3.23 3.896-6.002 8.168-8.252 12.732-4.23 8.584-6.606 18.254-6.606 28.442 0 35.612 28.986 64.596 64.596 64.596zM331.758-24.106l-14.878 47.154 134.878 427.578c7.522-6.106 15.962-11.106 25.108-14.69l-145.108-460.042zM527.628 118.774c0-8.626-7.002-15.628-15.628-15.628s-15.628 7.002-15.628 15.628v39.59c0 8.626 7.002 15.628 15.628 15.628s15.628-7.002 15.628-15.628v-39.59zM692.242-24.106l-90.246 286.136-29.798-9.418 31.048-98.414h-44.362v4.168c0 25.858-21.024 46.884-46.884 46.884-25.858 0-46.884-21.024-46.884-46.884v-4.168h-44.342l86.786 275.154c1.458-0.062 2.958-0.104 4.438-0.104s2.98 0.042 4.438 0.104c0.014 0 0.030 0.002 0.044 0.002-0.014 0-0.028-0.002-0.042-0.002l22.87-72.524 29.81 9.4-21.984 69.712c9.146 3.584 17.582 8.582 25.102 14.688l134.878-427.578-14.872-47.156z" />
<glyph unicode="&#xe911;" glyph-name="concrete-mixer-1" data-tags="concrete-mixer-1" d="M992.686 673.036v-76.212h-242.94v102.604l-163.438 154.706h-161.082l-163.438-154.706v-102.606h-27.97v154.2h-96.032v-154.2h-35.49v82.004h-102.296v-192.066h102.296v78.746h35.49v-651.64h96.032v270.182h551.144v-36.718h-521.36v-31.314h521.362v-202.148h96.032v475.814h-31.316v-444.502h-33.402v620.324h33.402v-70.396h31.314v70.4h111.69v-76.21h31.316v183.738h-31.314zM70.98 518.074h-39.664v129.436h39.664v-129.436zM202.504-54.818h-33.404v774.522h33.402v-774.522zM293.104 685.952l144.594 136.87h136.138l144.594-136.87v-243.746l-142.522-81.602h-140.28l-142.522 81.602v243.746zM784.962 215.362h-551.144v350.144h27.97v-141.452l165.508-94.766h156.94l165.508 94.766v141.456h35.216v-350.148zM443.734 481.682h213.256v-31.316h-213.256v31.316zM354.57 481.682h40.53v-31.316h-40.53v31.316zM849.68 458.572h31.314v-31.314h-31.314v31.314z" />
<glyph unicode="&#xe912;" glyph-name="concrete-mixer" data-tags="concrete-mixer" d="M1006.934 588.8h-17.066c0 10.24-6.826 17.066-17.066 17.066s-17.066-6.826-17.066-17.066v-136.534h-17.066v68.266c0 10.24-6.826 17.066-17.066 17.066h-68.266c-10.24 0-17.066-6.826-17.066-17.066v-68.266h-32.432v34.134c0 1.706-1.706 3.414-1.706 5.12l-81.92 233.814c-15.36 40.96-54.614 68.266-97.28 68.266h-151.894c-44.374 0-83.626-27.306-97.28-68.266l-79.664-227.374c-2.202-2.552-3.574-5.884-3.888-9.8-0.070-0.588-0.074-1.174-0.074-1.762v-34.134h-34.134v221.87c0 10.24-6.826 17.066-17.066 17.066h-153.6c-3.414 0-8.534-1.706-11.946-5.12l-68.268-68.266c-3.414-3.414-5.12-6.828-5.12-11.948v-187.734c0-37.546 30.72-68.266 68.266-68.266h85.334v-221.46c-20.836-15.43-34.134-40.236-34.134-68.672 0-47.786 37.546-85.334 85.334-85.334 47.786 0 85.334 37.546 85.334 85.334 0 28.436-13.298 53.242-34.134 68.672v289.728h34.134v-34.134c0-6.238 2.544-11.198 6.838-14.13l117.748-192.376c11.946-20.48 34.134-32.426 58.026-32.426h146.774c23.894 0 46.080 11.946 61.44 32.426l121.174 197.974c0 1.706 1.706 5.12 1.706 8.534v34.134h32.426v-289.728c-20.836-15.43-34.134-40.236-34.134-68.672 0-47.786 37.546-85.334 85.334-85.334 47.786 0 85.334 37.546 85.334 85.334 0 28.436-13.298 53.242-34.134 68.672v289.726h17.066v-136.534c0-10.24 6.826-17.066 17.066-17.066s17.066 6.826 17.066 17.066v273.066h17.066c10.24 0 17.066 6.826 17.066 17.066s-6.822 17.068-17.062 17.068zM68.266 384c-18.774 0-34.134 15.36-34.134 34.134v17.066h34.134c10.24 0 17.066 6.826 17.066 17.066s-6.826 17.066-17.066 17.066h-34.132v34.134h34.134c10.24 0 17.066 6.826 17.066 17.066s-6.826 17.066-17.066 17.066h-34.134v61.44l58.026 58.026h61.44v-273.064h-85.334zM204.8 8.534c-29.014 0-51.2 22.186-51.2 51.2 0 17.348 7.936 32.25 20.518 41.432 2.106 0.506 3.964 1.234 5.082 1.234 17.066 10.24 34.134 10.24 51.2 0 2.016-1.344 4.3-2.138 6.636-2.424 11.674-9.252 18.964-23.622 18.964-40.242 0-29.014-22.186-51.2-51.2-51.2zM204.8 145.066c-5.86 0-11.564-0.572-17.066-1.65v513.65h34.134v-513.65c-5.504 1.078-11.208 1.65-17.068 1.65zM324.266 469.334h443.734v-68.266h-443.734v68.266zM406.186 713.386c10.24 27.306 35.84 46.080 64.854 46.080h151.894c29.014 0 54.614-18.774 64.854-46.080l73.084-209.92h-429.324l74.638 209.92zM648.534 196.266c-6.826-10.24-17.066-17.066-29.014-17.066h-146.774c-11.946 0-22.186 6.826-29.014 17.066l-105.722 170.666h416.246l-105.722-170.666zM887.466 8.534c-29.014 0-51.2 22.186-51.2 51.2 0 16.62 7.29 30.99 18.964 40.242 2.338 0.286 4.62 1.080 6.636 2.424 17.066 10.24 34.134 10.24 51.2 0 2.302-1.152 3.836-1.52 5.632-1.642 12.262-9.214 19.968-23.932 19.968-41.024 0-29.014-22.186-51.2-51.2-51.2zM904.018 143.506c-5.058 1.546-11.596 1.562-16.552 1.562-4.954 0-11.494-0.014-16.552-1.562-0.17-0.032-0.344-0.056-0.516-0.090v360.050h34.134v-360.050c-0.17 0.034-0.344 0.058-0.514 0.090z" />
<glyph unicode="&#xe913;" glyph-name="crane" data-tags="crane" d="M1022.031 544.385l-85.312 170.624c-3.413 6.824-8.532 10.237-15.356 10.237h-475.397c-1.136 0.108-2.285 0.104-3.425 0h-4.569l-52.364 158.679c-1.706 6.824-8.532 11.943-15.356 11.943h-56.305c-8.532 0-15.356-5.119-17.062-11.943l-52.364-158.679h-39.772v17.062c0 10.237-6.824 17.062-17.062 17.062h-85.312c-10.237 0-17.062-6.824-17.062-17.062v-51.187h-68.25c-10.237 0-17.062-6.824-17.062-17.062v-34.125c0-47.774 37.536-85.312 85.312-85.312v-51.187c0-10.237 6.824-17.062 17.062-17.062h85.312c10.237 0 17.062 6.824 17.062 17.062v17.062h34.125v-614.242h-102.374c-10.237 0-17.062-6.824-17.062-17.062s6.824-17.062 17.062-17.062h494.804c10.237 0 17.062 6.824 17.062 17.062s-6.824 17.062-17.062 17.062h-187.686v614.242h392.433v-180.845c-22.282-23.516-34.125-55.382-34.125-88.739v-20.475c0-10.237 6.824-17.062 17.062-17.062h17.062v-34.125c0-10.237 6.824-17.062 17.062-17.062 18.769 0 34.125-15.356 34.125-34.125s-15.356-34.125-34.125-34.125-34.125 15.356-34.125 34.125c0 10.237-6.824 17.062-17.062 17.062s-17.062-6.824-17.062-17.062c0-37.536 30.712-68.248 68.248-68.248s68.248 30.712 68.248 68.248c0 31.65-21.836 58.449-51.187 66.075v19.237h17.062c10.237 0 17.062 6.824 17.062 17.062v20.475c0 33.355-11.843 63.748-34.125 88.435v181.149h136.499c6.824 0 11.943 3.413 15.356 6.824 1.712 5.121 3.417 11.945 0.006 17.064zM929.78 653.812l-75.533-90.369-47.544 59.429 54.6 68.248h49.821l18.655-37.308zM311.508 648.466l-38.512-26.959v53.916l38.512-26.957zM752.104 691.121h65.519l-32.76-40.949-32.76 40.949zM763.025 622.872l-46.41-58.013-46.41 58.011 46.41 58.011 46.41-58.009zM648.367 650.171l-32.76 40.949h65.519l-32.76-40.949zM626.526 622.872l-46.41-58.011-46.41 58.011 46.41 58.011 46.41-58.011zM511.868 650.171l-32.76 40.949h65.519l-32.76-40.949zM409.494 621.507l-38.512 26.959 38.512 26.959v-53.918zM398.119 587.837l-56.873-45.498-56.873 45.5 56.873 39.812 56.873-39.814zM272.996 537.56v15.698l40.949-32.76-40.949-32.76v49.821zM368.545 111.004l40.949 32.76v-65.519l-40.949 32.76zM400.963 41.048l-57.917-52.191-59.813 53.896 57.881 46.304 59.849-48.010zM409.494 280.261v-65.519l-40.949 32.76 40.949 32.76zM341.246 269.342l-58.011 46.41 58.011 46.41 58.011-46.41-58.011-46.41zM399.257 179.253l-58.011-46.41-58.011 46.41 58.011 46.41 58.011-46.41zM409.494 351.24l-40.949 32.76 40.949 32.76v-65.519zM341.246 405.84l-58.011 46.41 58.011 46.41 58.011-46.41-58.011-46.41zM313.945 384l-40.949-32.76v65.519l40.949-32.76zM313.945 247.501l-40.949-32.76v65.519l40.949-32.76zM313.851 110.928l-40.855-32.686v65.459l40.855-32.774zM316.84-34.754l-43.845-39.508v78.968l43.845-39.46zM342.194-57.572l40.192-36.173h-80.383l40.192 36.173zM368.399-33.986l41.095 36.986v-74.019l-41.095 37.032zM409.494 537.56v-49.821l-40.949 32.76 40.949 32.76v-15.698zM443.62 584.746c1.056 3.267 1.026 6.538 0 9.5v86.638l46.41-58.011-46.41-58.011v19.885zM544.628 554.622h-65.519l32.76 40.949 32.76-40.949zM648.367 595.571l32.76-40.949h-65.519l32.76 40.949zM784.864 595.571l32.76-40.949h-65.519l32.76 40.949zM325.89 861.743h32.418l47.926-146.972-64.987-45.492-64.899 45.43 49.543 147.034zM34.125 639.934v17.062h51.187v-68.248c-29.007 0-51.187 22.18-51.187 51.187zM170.622 520.499h-51.187v204.747h51.187v-204.747zM204.747 554.622v136.499h34.125v-136.499h-34.125zM870.176 247.501h-34.125v3.413c0 20.475 5.119 39.244 17.062 56.305 11.943-17.062 17.062-35.831 17.062-56.305v-3.413zM891.006 554.622l55.292 66.153 33.075-66.153h-88.367z" />
<glyph unicode="&#xe914;" glyph-name="document" data-tags="document" d="M558.423 502.243h31.302v-31.302h-31.302v31.302zM127.92 545.565h333.885v-31.302h-333.885v31.302zM127.92 466.915h333.885v-31.302h-333.885v31.302zM127.92 242.939h333.885v-31.302h-333.885v31.302zM127.92 167.857h243.738v-31.302h-243.738v31.302zM127.92 624.529h150.248v-31.302h-150.248v31.302zM315.731 624.529h31.302v-31.302h-31.302v31.302zM127.92 389.057h31.302v-31.302h-31.302v31.302zM195.74 389.057h220.156v-31.302h-220.156v31.302zM843.613 529.043l22.134 22.134 22.134-22.134-22.134-22.134-22.134 22.134zM919.232 769.954l-391.467-391.471-50.512-155.278 81.172 26.406v-220.264h-527.123v702.411h527.121v-191.962h31.302v223.264h-589.725v-765.015h589.725v261.749l42.806 13.926 206.658 206.656-22.134 22.134-201.348-201.35-89.67-29.17 29.17 89.668 310.905 310.905 19.182-19.182-313.561-313.559 22.136-22.134 313.559 313.559 19.182-19.182-35.040-35.040 22.134-22.134 110.294 110.296-104.766 104.766zM888.246 694.702l30.986 30.986 60.498-60.498-30.986-30.986-60.498 60.498z" />
<glyph unicode="&#xe915;" glyph-name="documents" data-tags="documents" d="M845.424 741.396v76.8h-76.72v77.804h-459.634l-209.47-209.468v-659.922h76.736v-77.808h78.952v-76.802h669.112v869.396h-78.976zM299.888 842.488v-146.774h-146.776l146.776 146.774zM130.948 57.954v606.41h200.288v200.29h406.12v-806.698h-606.408zM893.052-96.654h-606.418v45.454h558.79v557.454h-31.348v-526.106h-606.394v46.46h561.022v760.242h45.374v-175.062h31.346v98.262h47.626v-806.704zM210.148 476.976h448.010v-31.346h-448.010v31.346zM424.27 756.326h233.89v-31.346h-233.89v31.346zM210.148 616.658h448.010v-31.346h-448.010v31.346zM210.148 337.294h448.010v-31.348h-448.010v31.348zM210.148 197.632h164.93v-31.346h-164.93v31.346zM412.692 197.632h31.346v-31.346h-31.346v31.346zM814.078 575.216h31.346v-31.346h-31.346v31.346z" />
<glyph unicode="&#xe916;" glyph-name="door" data-tags="door" d="M972.8-93.866h-102.4v972.8c0 10.24-6.826 17.066-17.066 17.066h-682.668c-10.24 0-17.066-6.826-17.066-17.066v-972.8h-102.4c-10.24 0-17.066-6.826-17.066-17.066s6.826-17.068 17.066-17.068h921.6c10.24 0 17.066 6.826 17.066 17.066s-6.826 17.068-17.066 17.068zM256-93.866v887.466h512v-887.466h-512zM802.134-93.866v904.532c0 10.24-6.826 17.066-17.066 17.066h-546.134c-10.24 0-17.066-6.826-17.066-17.066v-904.534h-34.134v955.734h648.534v-955.734h-34.134zM716.8 401.066h-68.266c-10.24 0-17.066-6.826-17.066-17.066v-17.066h-34.134c-10.24 0-17.066-6.826-17.066-17.066s6.826-17.066 17.066-17.066h34.134v-17.066c0-10.24 6.826-17.066 17.066-17.066h68.266c10.24 0 17.066 6.826 17.066 17.066v68.264c0 10.24-6.826 17.066-17.066 17.066zM699.734 332.8h-34.134v34.134h34.134v-34.134z" />
<glyph unicode="&#xe917;" glyph-name="driller" data-tags="driller" d="M582.748 527.066h31.444v-31.444h-31.444v31.444zM0 676.422v-584.844h241.064v211.718h328.28l124.502 124.502v248.624h-693.846zM31.444 224.268h28.298v31.444h-28.298v34.168h28.298v31.444h-28.298v34.168h28.298v31.444h-28.298v34.168h28.298v31.444h-28.298v35.216h67.078v-297.664h-67.078v34.168zM662.404 440.82l-48.212-48.212v65.284h-31.444v-96.728l-26.424-26.424h-346.702v-211.718h-178.178v35.636h98.522v360.548h-98.522v125.772h551.304v-81.228h31.444v81.228h48.212v-204.158zM884.312 563.226l-25.446 44.722h-58.78l-18.638 32.762h-71.88v-31.442h53.59l18.64-32.762h58.784l16.498-29.002-16.498-29h-58.784l-18.64-32.762h-53.59v-31.444h71.88l18.638 32.762h58.78l25.446 44.722h139.688v31.444zM420.29 403.914h104.81v-31.444h-104.81v31.444zM420.29 473.090h104.81v-31.444h-104.81v31.444zM420.29 542.264h104.81v-31.444h-104.81v31.444zM303.95 291.766c0-28.318-23.038-51.358-51.358-51.358v-31.444c45.656 0 82.8 37.144 82.8 82.8h-31.442z" />
<glyph unicode="&#xe918;" glyph-name="faucet" data-tags="faucet" d="M983.166 191.87v0 65.9c0 165.73-134.834 300.562-300.562 300.562h-31.524c-27.54 56.062-79.66 97.944-142.218 111.512v49.208h130.88v87.95h-130.882v7.33c0 24.25-19.728 43.976-43.976 43.976s-43.976-19.726-43.976-43.976v-7.33h-130.88v-87.95h130.88v-49.208c-62.56-13.568-114.68-55.448-142.218-111.512h-278.69v-172.362h274.164c8.366-19.638 19.768-38.014 33.952-54.392l23.746 20.564c-27.654 31.928-42.88 72.804-42.88 115.098 0 96.994 78.91 175.902 175.902 175.902s175.902-78.908 175.902-175.902c0-96.994-78.91-175.902-175.902-175.902-19.428 0-38.512 3.142-56.718 9.34l-10.122-29.736c21.472-7.308 43.96-11.014 66.84-11.014 85.482 0 159.040 52.008 190.708 126.042h27.010c70.69 0 128.202-57.51 128.202-128.198v-65.9h-40.186v-31.412h253.382v31.412h-40.834zM263.704 417.38h-232.292v109.54h234.928c-5.694-18.91-8.77-38.942-8.77-59.682 0-16.932 2.12-33.658 6.134-49.858zM452.318 814.332c0 6.93 5.636 12.564 12.564 12.564s12.564-5.636 12.564-12.564v-7.33h-25.128v7.33zM321.44 750.462v25.13h286.888v-25.128h-286.888zM477.448 674.16c-4.158 0.25-8.344 0.392-12.564 0.392s-8.406-0.142-12.564-0.392v44.892h25.128v-44.892zM951.754 191.87h-109.54v65.9c0 88.010-71.6 159.61-159.61 159.61h-16.482c3.96 15.978 6.074 32.676 6.074 49.86 0 20.74-3.076 40.772-8.77 59.682h19.178c148.41 0 269.15-120.74 269.15-269.15v-65.902zM352.43 331.972l-20.096-24.142c9.86-8.208 20.532-15.532 31.712-21.768l15.302 27.434c-9.49 5.292-18.546 11.51-26.918 18.476zM949.382 82.838c-18.304 26.036-36.338 46.764-37.098 47.636l-11.834 13.564-11.834-13.566c-0.758-0.872-18.794-21.598-37.098-47.636-26.206-37.27-38.944-65.164-38.944-85.268 0-48.452 39.42-87.874 87.876-87.874 48.454 0 87.876 39.42 87.876 87.876 0 20.106-12.738 47.996-38.944 85.268zM900.45-58.896c-31.134 0-56.464 25.33-56.464 56.464 0 21.25 30.99 66.582 56.464 98.122 25.474-31.538 56.464-76.87 56.464-98.122 0-31.134-25.33-56.464-56.464-56.464z" />
<glyph unicode="&#xe919;" glyph-name="fence" data-tags="fence" d="M1024 461.532v94.040h-64.784v72.724l-78.368 57.47-78.368-57.47v-72.724h-89.166v72.724l-78.368 57.47-78.368-57.47v-72.724h-89.166v72.724l-78.368 57.47-78.368-57.47v-72.724h-89.164v72.724l-78.368 57.47-78.368-57.47v-72.724h-64.776v-94.040h64.784v-158.824h-64.784v-94.040h64.784v-126.432h156.734v126.432h89.166v-126.432h156.734v126.432h89.166v-126.432h156.734v126.432h89.164v-126.432h156.734v126.432h64.784v94.040h-64.784v158.824h64.784zM959.216 524.226h33.436v-31.346h-33.436v31.346zM64.784 240.014h-33.438v31.346h33.436v-31.346zM64.784 492.878h-33.438v31.346h33.436v-31.346zM467.416 524.226h89.166v-31.346h-89.166v31.346zM310.684 240.014h-89.166v31.346h89.166v-31.346zM310.684 302.706h-89.166v26.644h-31.346v-215.77h-94.040v498.832l47.020 34.482 47.020-34.482v-177.526h31.346v26.644h89.166v-158.824zM310.684 492.878h-89.166v31.346h89.166v-31.346zM436.072 113.58h-94.040v498.832l47.020 34.482 47.020-34.482v-498.832zM467.416 302.706v158.824h89.166v-158.824h-89.166zM556.584 240.014h-89.166v31.346h89.166v-31.346zM802.482 240.014h-89.166v31.346h89.166v-31.346zM802.482 302.706h-89.166v26.644h-31.346v-215.77h-94.040v498.832l47.020 34.482 47.020-34.482v-177.526h31.346v26.644h89.166v-158.824zM802.482 492.878h-89.166v31.346h89.166v-31.346zM927.87 113.58h-94.040v498.832l47.020 34.482 47.020-34.482v-498.832zM992.654 271.36v-31.346h-33.436v31.346h33.436zM190.172 398.316h31.346v-31.346h-31.346v31.346zM681.964 398.316h31.346v-31.346h-31.346v31.346z" />
<glyph unicode="&#xe91a;" glyph-name="flash" data-tags="flash" d="M800.776 544.426c-3.414 6.826-8.534 10.24-15.36 10.24h-201.386l199.68 315.734c3.414 5.12 3.414 11.946 0 17.066s-8.534 8.534-15.36 8.534h-273.066c-6.826 0-11.946-3.414-15.36-8.534l-256-512c-3.414-5.12-3.414-11.946 0-17.066s10.24-8.534 15.36-8.534h175.786l-191.146-455.68c-3.414-6.826 0-15.36 6.826-20.48 1.706-1.706 5.12-1.706 8.534-1.706 5.12 0 10.24 1.706 13.654 5.12l546.134 648.534c3.412 5.12 5.118 11.946 1.704 18.772zM299.016-13.654l157.014 375.466c1.706 5.12 1.706 10.24-1.706 15.36-3.414 3.414-8.534 6.826-13.654 6.826h-174.080l238.934 477.868h232.106l-201.386-315.732c-3.414-5.12-3.414-11.946 0-17.066s8.534-8.534 15.36-8.534h197.974l-450.562-534.188z" />
<glyph unicode="&#xe91b;" glyph-name="garage" data-tags="garage" d="M1006.932 810.667h-989.866c-10.24 0-17.066-6.828-17.066-17.068v-819.199c0-10.24 6.826-17.066 17.066-17.066h989.866c10.24 0 17.066 6.826 17.066 17.066v819.199c0.002 10.24-6.826 17.068-17.066 17.068zM102.401 264.535h819.199v-68.267h-819.199v68.267zM921.599 298.666h-819.199v68.267h819.199v-68.267zM102.401 162.134h819.199v-68.267h-819.199v68.267zM921.599 401.067h-819.199v68.267h819.199v-68.267zM102.401-8.532v68.267h819.199v-68.267h-819.199zM989.866-8.532h-34.134v494.935c0 10.24-6.826 17.066-17.066 17.066h-853.334c-10.24 0-17.066-6.826-17.066-17.066v-494.935h-34.134v785.065h955.733v-785.065zM563.2 537.601h375.467c10.24 0 17.066 6.826 17.066 17.066v76.799c0 5.12-3.414 11.946-8.534 15.36-121.172 63.147-249.173 95.573-383.999 95.573-10.24 0-17.066-6.826-17.066-17.066v-170.666c-0.002-10.24 6.826-17.066 17.066-17.066zM580.266 708.267c119.466-1.706 233.813-30.72 341.333-87.041v-49.493h-341.333v136.534zM85.333 537.601h375.467c10.24 0 17.066 6.826 17.066 17.066v170.668c0 10.24-6.826 17.066-17.066 17.066-134.826 0-262.826-32.428-383.999-95.573-5.12-3.414-8.534-8.534-8.534-15.36v-76.799c0-10.242 6.826-17.068 17.066-17.068zM102.401 621.228c107.521 54.613 221.867 85.333 341.333 87.041v-136.534h-341.333v49.493z" />
<glyph unicode="&#xe91c;" glyph-name="glass-wall-1" data-tags="glass-wall-1" d="M0 797.78v-827.56h1024v827.56h-1024zM330.886 146.158h-269.56v-31.346h269.56v-113.244h-299.54v764.864h299.538v-620.274zM661.77 1.568h-299.538v113.244h299.536v-113.244zM992.654 1.568h-299.538v113.244h299.536v-113.244zM992.654 146.158h-299.538v64.666h-31.346v-64.666h-299.538v620.274h299.536v-418.922h31.346v418.922h299.536v-620.274zM661.776 310.982h31.346v-31.302h-31.346v31.302zM48.466 637.129l77.913 111.26 25.676-17.98-77.913-111.26-25.676 17.98zM78.621 581.566l77.913 111.26 25.676-17.98-77.913-111.26-25.676 17.98zM379.353 637.15l77.913 111.26 25.676-17.98-77.913-111.26-25.676 17.98zM409.503 581.537l77.92 111.283 25.68-17.981-77.92-111.283-25.68 17.981zM710.189 637.103l77.913 111.26 25.676-17.98-77.913-111.26-25.676 17.98zM740.362 581.531l77.92 111.283 25.68-17.981-77.92-111.283-25.68 17.981z" />
<glyph unicode="&#xe91d;" glyph-name="glass-wall" data-tags="glass-wall" d="M1005.713 896h-987.428c-10.97 0-18.285-7.314-18.285-18.285v-987.426c0-10.97 7.314-18.285 18.285-18.285h987.426c10.97 0 18.285 7.314 18.285 18.285v987.426c0.004 10.97-7.31 18.285-18.283 18.285zM36.572 530.286h292.571v-292.571h-292.571v292.571zM365.714 530.286h292.571v-292.571h-292.571v292.571zM694.856 530.286h292.571v-292.571h-292.571v292.571zM987.428 566.858h-292.573v292.571h292.571v-292.571zM658.284 566.858h-292.571v292.571h292.571v-292.571zM36.572 859.428h292.571v-292.571h-292.571v292.571zM36.572 201.144h292.571v-292.571h-292.571v292.571zM365.714 201.144h292.571v-292.571h-292.571v292.571zM987.428-91.428h-292.573v292.573h292.571v-292.573zM96.914 835.657l-36.572-36.572c-7.314-7.314-7.314-18.285 0-25.599 3.658-3.656 9.142-5.486 12.801-5.486 5.486 0 9.142 1.828 12.801 5.486l36.572 36.572c7.314 7.314 7.314 18.285 0 25.599-7.316 7.314-18.287 7.314-25.601 0zM96.914 744.229l-36.572-36.572c-7.314-7.314-7.314-18.285 0-25.599 3.658-3.658 7.314-5.486 12.801-5.486s9.142 1.828 12.801 5.486l36.57 36.57c7.314 7.314 7.314 18.285 0 25.599-7.314 7.316-18.285 7.316-25.599 0.002zM188.342 835.657l-36.572-36.572c-7.314-7.314-7.314-18.285 0-25.599 3.658-3.656 9.142-5.486 12.801-5.486 5.486 0 9.142 1.828 12.801 5.486l36.572 36.572c7.314 7.314 7.314 18.285 0 25.599s-18.287 7.314-25.601 0zM402.285 768.001c5.486 0 9.142 1.828 12.801 5.486l36.572 36.572c7.314 7.314 7.314 18.285 0 25.599s-18.285 7.314-25.599 0l-36.572-36.572c-7.314-7.314-7.314-18.285 0-25.599 3.656-3.658 7.312-5.486 12.799-5.486zM402.285 676.573c5.486 0 9.142 1.828 12.801 5.486l36.572 36.572c7.314 7.314 7.314 18.285 0 25.599s-18.285 7.314-25.599 0l-36.572-36.572c-7.314-7.314-7.314-18.285 0-25.599 3.656-3.658 7.312-5.486 12.799-5.486zM493.713 768.001c5.486 0 9.142 1.828 12.801 5.486l36.572 36.572c7.314 7.314 7.314 18.285 0 25.599s-18.285 7.314-25.599 0l-36.572-36.572c-7.314-7.314-7.314-18.285 0-25.599 3.656-3.658 7.314-5.486 12.799-5.486zM731.427 768.001c5.486 0 9.142 1.828 12.801 5.486l36.572 36.572c7.314 7.314 7.314 18.285 0 25.599s-18.285 7.314-25.599 0l-36.574-36.572c-7.314-7.314-7.314-18.285 0-25.599 3.658-3.658 7.316-5.486 12.801-5.486zM731.427 676.573c5.486 0 9.142 1.828 12.801 5.486l36.572 36.572c7.314 7.314 7.314 18.285 0 25.599s-18.285 7.314-25.599 0l-36.574-36.572c-7.314-7.314-7.314-18.285 0-25.599 3.658-3.658 7.316-5.486 12.801-5.486zM822.857 768.001c5.486 0 9.142 1.828 12.801 5.486l36.572 36.572c7.314 7.314 7.314 18.285 0 25.599s-18.285 7.314-25.601 0l-36.572-36.572c-7.314-7.314-7.314-18.285 0-25.599 3.656-3.658 7.314-5.486 12.801-5.486zM96.914 506.515l-36.572-36.572c-7.314-7.314-7.314-18.285 0-25.599 3.658-3.656 7.314-5.486 12.801-5.486s9.142 1.828 12.801 5.486l36.572 36.572c7.314 7.314 7.314 18.285 0 25.599-7.316 7.314-18.287 7.314-25.601 0zM96.914 415.085l-36.572-36.572c-7.314-7.314-7.314-18.285 0-25.599 3.658-3.656 7.314-5.486 12.801-5.486s9.142 1.828 12.801 5.486l36.572 36.572c7.314 7.314 7.314 18.285 0 25.599-7.316 7.314-18.287 7.314-25.601 0zM188.342 506.515l-36.572-36.572c-7.314-7.314-7.314-18.285 0-25.599 3.658-3.656 7.314-5.486 12.801-5.486s9.142 1.828 12.801 5.486l36.572 36.572c7.314 7.314 7.314 18.285 0 25.599s-18.287 7.314-25.601 0zM426.056 506.515l-36.572-36.572c-7.314-7.314-7.314-18.285 0-25.599 3.658-3.656 7.314-5.486 12.801-5.486s9.142 1.828 12.801 5.486l36.572 36.572c7.314 7.314 7.314 18.285 0 25.599s-18.287 7.314-25.601 0zM426.056 415.085l-36.572-36.572c-7.314-7.314-7.314-18.285 0-25.599 3.658-3.656 7.314-5.486 12.801-5.486s9.142 1.828 12.801 5.486l36.572 36.572c7.314 7.314 7.314 18.285 0 25.599s-18.287 7.314-25.601 0zM517.484 506.515l-36.572-36.572c-7.314-7.314-7.314-18.285 0-25.599 3.658-3.656 7.314-5.486 12.801-5.486s9.142 1.828 12.801 5.486l36.572 36.572c7.314 7.314 7.314 18.285 0 25.599s-18.285 7.314-25.601 0zM755.198 506.515l-36.572-36.572c-7.314-7.314-7.314-18.285 0-25.599 3.658-3.656 7.314-5.486 12.801-5.486s9.142 1.828 12.801 5.486l36.572 36.572c7.314 7.314 7.314 18.285 0 25.599s-18.287 7.314-25.601 0zM755.198 415.085l-36.572-36.572c-7.314-7.314-7.314-18.285 0-25.599 3.658-3.656 7.314-5.486 12.801-5.486s9.142 1.828 12.801 5.486l36.572 36.572c7.314 7.314 7.314 18.285 0 25.599s-18.287 7.314-25.601 0zM846.628 506.515l-36.572-36.572c-7.314-7.314-7.314-18.285 0-25.599 3.658-3.656 7.314-5.486 12.801-5.486s9.142 1.828 12.801 5.486l36.572 36.572c7.314 7.314 7.314 18.285 0 25.599-7.316 7.314-18.287 7.314-25.601 0zM96.914 177.371l-36.572-36.572c-7.314-7.314-7.314-18.285 0-25.599 3.658-3.658 7.314-5.486 12.801-5.486s9.142 1.828 12.801 5.486l36.572 36.572c7.314 7.314 7.314 18.285 0 25.599-7.316 7.314-18.287 7.314-25.601 0zM96.914 85.943l-36.572-36.572c-7.314-7.314-7.314-18.285 0-25.599 3.658-3.658 7.314-5.486 12.801-5.486s9.142 1.828 12.801 5.486l36.572 36.572c7.314 7.314 7.314 18.285 0 25.601-7.316 7.312-18.287 7.312-25.601-0.002zM188.342 177.371l-36.572-36.572c-7.314-7.314-7.314-18.285 0-25.599 3.658-3.658 7.314-5.486 12.801-5.486s9.142 1.828 12.801 5.486l36.572 36.572c7.314 7.314 7.314 18.285 0 25.599s-18.287 7.314-25.601 0zM426.056 177.371l-36.572-36.572c-7.314-7.314-7.314-18.285 0-25.599 3.658-3.658 7.314-5.486 12.801-5.486s9.142 1.828 12.801 5.486l36.572 36.572c7.314 7.314 7.314 18.285 0 25.599s-18.287 7.314-25.601 0zM426.056 85.943l-36.572-36.572c-7.314-7.314-7.314-18.285 0-25.599 3.658-3.658 7.314-5.486 12.801-5.486s9.142 1.828 12.801 5.486l36.572 36.572c7.314 7.314 7.314 18.285 0 25.601-7.314 7.312-18.287 7.312-25.601-0.002zM517.484 177.371l-36.572-36.572c-7.314-7.314-7.314-18.285 0-25.599 3.658-3.658 7.314-5.486 12.801-5.486s9.142 1.828 12.801 5.486l36.572 36.572c7.314 7.314 7.314 18.285 0 25.599s-18.285 7.314-25.601 0zM731.427 109.714c5.486 0 9.142 1.828 12.801 5.486l36.572 36.572c7.314 7.314 7.314 18.285 0 25.599s-18.285 7.314-25.599 0l-36.572-36.572c-7.314-7.314-7.314-18.285 0-25.599 3.656-3.656 7.314-5.486 12.799-5.486zM731.427 18.286c5.486 0 9.142 1.828 12.801 5.486l36.572 36.572c7.314 7.314 7.314 18.285 0 25.601-7.314 7.314-18.285 7.314-25.599 0l-36.572-36.572c-7.314-7.314-7.314-18.285 0-25.599 3.656-3.66 7.314-5.488 12.799-5.488zM822.857 109.714c5.486 0 9.142 1.828 12.801 5.486l36.572 36.572c7.314 7.314 7.314 18.285 0 25.599s-18.285 7.314-25.601 0l-36.572-36.572c-7.314-7.314-7.314-18.285 0-25.599 3.656-3.656 7.314-5.486 12.801-5.486z" />
<glyph unicode="&#xe91e;" glyph-name="hammer" data-tags="hammer" d="M824.99 878.934h-85.334c-8.534 0-17.066-3.414-23.894-10.24s-10.24-15.36-10.24-23.894c-17.066 0-20.48 1.706-30.72 11.946-3.414 5.12-10.24 10.24-17.066 15.36-20.48 15.36-46.080 23.894-71.68 23.894h-88.746c-51.2 0-75.094 0-122.88-18.774-100.694-37.546-167.254-114.346-225.28-264.532-3.414-6.826 0-15.36 6.826-20.48 1.706-1.706 5.12-3.414 8.534-3.414s8.534 1.706 11.946 5.12l15.36 15.36c52.906 54.614 80.214 81.92 177.494 81.92 46.080 0 80.214-35.84 80.214-85.334v-665.6c0-37.546 30.72-68.266 68.266-68.266h34.134c37.546 0 68.266 30.72 68.266 68.266v650.060c12.626 2.55 20.388 8.146 29.014 15.54 1.706 1.706 3.414 3.414 6.826 5.12 8.534 5.12 13.654 10.24 18.774 15.36 10.24 10.24 13.654 13.654 30.72 13.654 0-8.534 3.414-17.066 8.534-23.894 6.826-6.826 15.36-10.24 25.6-10.24h85.334c29.014 0 51.2 22.186 51.2 51.2v170.668c-0.002 29.012-22.19 51.2-51.202 51.2zM586.056 418.134h-102.4v170.666h102.4v-170.666zM586.056-59.734c0-18.774-15.36-34.134-34.134-34.134h-34.134c-18.774 0-34.134 15.36-34.134 34.134v17.066h34.134c8.534 0 17.066 6.826 17.066 17.066s-6.826 17.066-17.066 17.066h-34.134v34.136h34.134c8.534 0 17.066 6.826 17.066 17.066s-6.826 17.066-17.066 17.066h-34.134v324.268h102.4v-443.734zM842.056 657.066c0-10.24-6.826-17.066-17.066-17.066h-85.334c0 8.534-3.414 17.066-10.24 20.48-6.826 8.534-15.36 11.946-25.6 11.946-29.014 0-39.254-6.826-52.906-20.48-3.414-3.414-8.534-8.534-15.36-13.654-1.706-1.706-5.12-3.414-6.826-5.12-10.24-8.534-13.654-10.24-25.6-10.24h-121.174c-6.826 58.026-54.614 102.4-112.64 102.4-76.8 0-117.76-17.066-153.6-46.080 46.080 88.748 98.986 139.948 170.666 167.254 40.96 15.36 59.734 15.36 110.934 15.36h88.746c18.774 0 37.546-6.826 51.2-17.066 6.826-5.12 11.946-10.24 15.36-13.654 13.654-11.946 23.894-20.48 52.906-20.48 8.534 0 18.774 3.414 23.894 10.24 6.826 6.826 10.24 15.36 10.24 23.894h85.334c10.24 0 17.066-6.826 17.066-17.066v-170.668z" />
<glyph unicode="&#xe91f;" glyph-name="hangar" data-tags="hangar" d="M796.212 151.51h33.436v-31.348h-33.436v31.348zM874.038 497.876c-96.702 96.704-225.278 149.96-362.038 149.96s-265.336-53.256-362.038-149.96c-96.704-96.706-149.962-225.278-149.962-362.040v-15.674h760.686v31.348h-127.478v235.276h-242.416v-235.276h-302.7c8.276 226.684 195.238 408.556 423.908 408.556s415.632-181.87 423.908-408.556h-68.644v-31.348h156.736v15.674c0 136.762-53.256 265.336-149.962 362.040zM422.138 355.438h179.722v-27.472h-179.722v27.472zM422.138 296.622h179.722v-27.472h-179.722v27.472zM422.138 178.982h150.466v31.346h-150.466v27.472h179.722v-86.292h-179.722v27.474zM967.28 151.51c-3.892 115.81-50.798 224.126-133.138 306.466-86.048 86.048-200.454 133.436-322.142 133.436s-236.094-47.388-322.14-133.436c-82.342-82.34-129.25-190.656-133.138-306.466h-25.126c3.896 122.516 53.448 237.118 140.53 324.2 90.782 90.782 211.488 140.78 339.874 140.78s249.090-49.996 339.874-140.78c87.082-87.082 136.636-201.684 140.53-324.2h-25.124zM172.408 340.81v-91.952h174.498v91.952h-174.498zM315.56 280.206h-111.804v29.258h111.804v-29.258zM677.094 340.81v-91.952h174.498v91.952h-174.498zM820.244 280.206h-111.804v29.258h111.804v-29.258z" />
<glyph unicode="&#xe920;" glyph-name="heater" data-tags="heater" d="M1024 483.046v79.414h-54.628v150.422h-131.866v-150.424h-24.868v150.446h-131.866v-150.442h-24.572v150.462h-131.87v-150.464h-25.154v150.488h-131.87v-150.488h-24.076v150.506h-131.866v-150.508h-24.85v150.53h-131.866v-150.526h-54.648v-79.412h54.648v-150.466h-54.648v-79.412h54.648v-150.404h86.782c5.070-27.138 28.918-47.752 57.504-47.752 28.58 0 52.424 20.602 57.5 47.73h86.792v150.424h24.076v-150.442h131.87v150.442h25.154v-150.468h131.868v150.468h24.572v-150.488h86.816c5.102-27.098 28.932-47.668 57.49-47.668 28.55 0 52.376 20.56 57.486 47.648h86.81v150.51h54.632v79.412h-54.628v150.466h54.628zM969.372 531.112h23.28v-16.718h-23.28v16.718zM54.648 284.518h-23.302v16.718h23.302v-16.718zM54.648 514.394h-23.302v16.718h23.302v-16.718zM155.168 152.306c-4.7-5.3-8.454-11.45-10.996-18.194h-58.176v547.528h69.172v-529.334zM186.514 531.112h24.848v-16.718h-24.848v16.718zM186.514 483.048h24.848v-150.466h-24.848v150.466zM186.514 301.236h24.848v-16.718h-24.848v16.718zM211.362 253.172v-82.468c-4.006 0.872-8.16 1.342-12.424 1.342s-8.416-0.47-12.422-1.34v82.466h24.846zM198.936 86.362c-14.98 0-27.168 12.188-27.168 27.168s12.188 27.168 27.168 27.168 27.168-12.188 27.168-27.168-12.188-27.168-27.168-27.168zM311.884 134.092h-58.172c-2.544 6.75-6.3 12.906-11.002 18.21v529.318h69.174v-547.528zM367.304 284.518h-24.076v16.718h24.076v-16.718zM367.306 332.582h-24.078v150.466h24.078v-150.466zM367.306 514.394h-24.078v16.718h24.078v-16.718zM467.828 134.074h-69.176v547.526h69.176v-547.526zM524.33 284.518h-25.154v16.718h25.154v-16.718zM524.33 332.582h-25.154v150.466h25.154v-150.466zM524.33 514.394h-25.154v16.718h25.154v-16.718zM624.854 134.050h-69.176v547.528h69.176v-547.528zM680.772 284.518h-24.572v16.718h24.572v-16.718zM680.772 332.582h-24.572v150.466h24.572v-150.466zM680.772 514.394h-24.572v16.718h24.572v-16.718zM781.294 152.286c-4.71-5.316-8.472-11.49-11.014-18.256h-58.158v547.526h69.172v-529.27zM812.638 531.112h24.868v-16.718h-24.868v16.718zM812.638 483.048h24.866v-150.466h-24.866v150.466zM812.638 301.236h24.868v-16.718h-24.868v16.718zM837.506 253.172v-82.468c-4.008 0.872-8.162 1.342-12.428 1.342-4.27 0-8.428-0.472-12.438-1.344v82.47h24.866zM825.078 86.362c-14.98 0-27.168 12.188-27.168 27.168s12.188 27.168 27.168 27.168c14.98 0 27.168-12.188 27.168-27.168s-12.19-27.168-27.168-27.168zM938.026 134.010v0h-58.142c-2.544 6.782-6.312 12.966-11.032 18.29v529.236h69.174v-547.526zM992.654 301.236v-16.718h-23.28v16.718h23.28zM104.908 648.214h31.346v-480.654h-31.346v480.654zM261.622 648.194h31.346v-480.654h-31.346v480.654zM417.562 603.576h31.346v-436.078h-31.346v436.078zM574.59 648.13h31.346v-480.652h-31.346v480.652zM731.032 648.11h31.346v-480.654h-31.346v480.654zM887.766 648.088h31.346v-366.342h-31.346v366.342zM887.766 244.132h31.346v-31.346h-31.346v31.346z" />
<glyph unicode="&#xe921;" glyph-name="helmet1" data-tags="helmet" d="M812.137 172.137h-600.274c-10.594 0-17.655-7.062-17.655-17.655s7.062-17.655 17.655-17.655h600.276c10.594 0 17.655 7.062 17.655 17.655s-7.064 17.655-17.657 17.655zM1006.345 172.137h-35.31c-10.594 0-17.655 8.828-17.655 17.655v61.793c0 87.774-25.72 171.869-70.44 243.251-0.061 0.13-0.116 0.262-0.181 0.391-0.521 0.806-1.066 1.597-1.591 2.401-53.326 83.792-132.955 149.74-227.927 182.979v5.296c0 28.249-22.951 51.2-51.2 51.2h-178.316c-30.015 0-52.966-22.951-52.966-51.2v-7.062c-176.55-60.027-300.137-229.518-300.137-418.428v-70.621c0-10.594-8.828-17.655-17.655-17.655h-35.31c-10.594 0-17.655-7.062-17.655-17.655v-105.931c0-10.594 7.062-17.655 17.655-17.655h988.69c10.594 0 17.655 7.062 17.655 17.655v105.931c0 10.594-7.062 17.655-17.655 17.655zM793.491 549.66c8.478-8.541 16.642-17.409 24.463-26.509 7.66-9.060 14.929-18.453 21.81-28.135l-140.619-47.458 47.436 142.308c16.642-12.211 32.31-25.673 46.911-40.205zM277.186 588.799l47.668-143.008-141.242 47.67c26.485 37.076 58.264 70.621 93.574 95.338zM988.69 66.208h-953.379v70.621h17.655c30.015 0 52.966 24.717 52.966 52.966v70.621c0 73.732 20.241 144.133 55.946 204.984l185.929-61.976c1.766-1.766 3.532-1.766 5.296-1.766 5.296 0 8.828 1.766 14.123 5.296 3.532 3.532 5.296 10.594 3.532 17.655l-60.487 188.184c19.179 11.021 39.386 20.528 60.487 28.33v-62.914c0-10.594 7.062-17.655 17.655-17.655s17.655 7.062 17.655 17.655v107.697c0 8.828 7.062 15.889 17.655 15.889h70.621v-211.863c0-10.594 7.062-17.655 17.655-17.655s17.655 8.828 17.655 17.655v211.861h72.387c8.828 0 15.889-7.062 15.889-15.889v-107.697c0-10.594 7.062-17.655 17.655-17.655s17.655 7.062 17.655 17.655v62.65c22.038-8.425 43.096-18.778 63.028-30.804l-61.264-185.445c-3.532-5.296-1.766-12.359 3.532-17.655 3.532-3.532 7.062-5.296 12.359-5.296 1.766 0 3.532 0 5.296 0l183.685 62.322c37.111-63.185 58.19-136.371 58.19-212.39v-61.793c0-30.015 24.717-52.966 52.966-52.966h17.655v-70.621z" />
<glyph unicode="&#xe922;" glyph-name="high-voltage" data-tags="high-voltage" d="M685.608 382.858h-139.416l57.668 125.156h-156.478l-99.39-235.712h124.964l-46.166-203.364 258.818 313.92zM395.142 303.592l73.006 173.134h86.842l-57.67-125.156h121.938l-132.78-161.052 25.67 113.074h-117.006zM189.716 28.248h31.29v-31.29h-31.29v31.29zM258.558-3.042h765.442l-511.998 774.084-512.002-774.084h153.218v31.29h-95.010l453.794 686.076 453.79-686.076h-707.234z" />
<glyph unicode="&#xe923;" glyph-name="home" data-tags="home" d="M833.042 417.316l34.528-25.072 52.922 72.886-408.492 296.618-408.492-296.616 52.922-72.886 34.528 25.074v-379.714h-54.076v-31.346h750.236v31.346h-54.076v379.71zM163.378 436.028l-16.088 22.156 364.71 264.826 364.71-264.828-16.086-22.156-348.624 253.15-348.622-253.148zM801.696 37.604h-579.39v402.474l289.694 210.36 289.696-210.358v-402.476zM0 37.598h31.346v-31.346h-31.346v31.346zM67.918 37.598h31.348v-31.346h-31.348v31.346zM923.69 37.598h31.346v-31.346h-31.346v31.346zM992.654 37.598h31.346v-31.346h-31.346v31.346zM547.007 258.802l13.247 28.409 28.409-13.247-13.247-28.409-28.409 13.247zM751.628 197.978l-130.732 60.962-13.25-28.408 117.234-54.666 8.404-33.268-30.886-14.946-6.006 2.8 7.942 17.028-51.184 23.868-23.548-9.75-26.096 12.168-12.226 33.596-33.598-12.23-28.468 13.274c-2.066 13.734-10.822 25.78-23.958 31.902-13.136 6.126-27.992 5.090-39.84-2.15l-36.85 17.182-7.618-6.2c-24.434-19.89-57.332-23.974-85.854-10.676-40.68 18.968-58.34 67.496-39.374 108.172 18.962 40.674 67.484 58.332 108.168 39.368 28.526-13.304 46.54-41.136 47.006-72.63l0.144-9.82 62.846-29.306 13.25 28.408-45.502 21.218c-4.126 38.978-28.638 73.818-64.496 90.538-27.296 12.732-57.916 14.064-86.21 3.766-28.3-10.3-50.894-31.004-63.62-58.3-26.272-56.342-1.81-123.554 54.534-149.828 35.852-16.72 78.3-13.11 110.814 8.788l38.84-18.11 7.762 8.594c3.24 3.584 8.362 4.62 12.746 2.572 4.384-2.044 6.882-6.63 6.218-11.418l-1.592-11.466 59.566-27.778 16.34 5.948 5.948-16.338 50.362-23.484 23.55 9.75 10.278-4.794-7.942-17.028 47.912-22.34 67.282 32.562-18.296 72.47z" />
<glyph unicode="&#xe924;" glyph-name="house-1" data-tags="house-1" d="M833.042 417.316l34.526-25.072 52.924 72.886-408.492 296.618-408.492-296.616 52.924-72.886 34.528 25.072v-379.712h-54.078v-31.346h750.236v31.346h-54.076v379.71zM163.378 436.028l-16.088 22.156 364.71 264.826 364.71-264.828-16.088-22.156-348.622 253.15-348.622-253.148zM496.326 207.42c-27.866 25.358-69.948 71.76-75 124.188l75-75v-49.188zM496.326 300.94l-71.312 71.312c3.5 12.854 8.958 25.192 15.544 36.774l55.768-55.766v-52.32zM496.326 397.594l-37.982 37.98c12.704 16.482 26.536 30.442 37.982 40.858v-78.838zM801.696 37.604h-274.022v128.744c24.518 18.918 106.888 88.936 106.888 175.576 0 99.62-108.918 177.276-113.554 180.534l-9.008 6.328-9.010-6.328c-4.638-3.258-113.554-80.912-113.554-180.534 0-86.64 82.372-156.656 106.888-175.576v-128.744h-274.020v402.474l289.696 210.36 289.696-210.358v-402.476zM583.442 409.026c6.588-11.582 12.044-23.92 15.544-36.774l-71.312-71.312v52.32l55.768 55.766zM527.674 397.594v78.838c11.446-10.416 25.276-24.376 37.98-40.858l-37.98-37.98zM602.672 331.606c-5.054-52.428-47.138-98.832-74.998-124.188v49.19l74.998 74.998zM0 37.598h31.346v-31.346h-31.346v31.346zM67.918 37.598h31.348v-31.346h-31.348v31.346zM923.69 37.598h31.346v-31.346h-31.346v31.346zM992.654 37.598h31.346v-31.346h-31.346v31.346z" />
<glyph unicode="&#xe925;" glyph-name="house-2" data-tags="house-2" d="M833.042 417.316l34.528-25.072 52.922 72.884-408.492 296.622-408.492-296.622 52.922-72.884 34.528 25.074v-379.716h-54.076v-31.346h750.236v31.346h-54.076v379.714zM163.378 436.028l-16.088 22.154 364.71 264.828 364.71-264.83-16.086-22.154-348.624 253.148-348.622-253.146zM801.696 37.602h-579.39v402.478l289.694 210.356 289.696-210.358v-402.476zM0 37.598h31.346v-31.346h-31.346v31.346zM67.918 37.598h31.348v-31.346h-31.348v31.346zM923.69 37.598h31.346v-31.346h-31.346v31.346zM992.654 37.598h31.346v-31.346h-31.346v31.346zM676.024 415.792c-44.24 44.24-116.222 44.236-160.462 0l-3.548-3.55-3.55 3.55c-21.42 21.42-49.916 33.218-80.24 33.218-30.326 0-58.822-11.796-80.242-33.218-44.244-44.246-44.244-116.236 0-160.482l164.032-164.032 164.010 164.032c21.432 21.43 33.236 49.928 33.236 80.24s-11.806 58.812-33.236 80.242zM653.856 277.476l-141.844-141.864-141.866 141.864c-32.022 32.022-32.022 84.126 0 116.15 15.498 15.5 36.124 24.034 58.076 24.034 21.95 0 42.574-8.536 58.074-24.034l25.718-25.718 25.718 25.718c32.018 32.018 84.114 32.016 116.128 0h0.002c15.51-15.51 24.054-36.136 24.054-58.076-0.004-21.936-8.548-42.56-24.060-58.074z" />
<glyph unicode="&#xe926;" glyph-name="house-3" data-tags="house-3" d="M833.042 417.316l34.528-25.070 52.922 72.884-408.492 296.62-408.492-296.62 52.922-72.884 34.528 25.072v-379.716h-54.076v-31.346h750.236v31.346h-54.076v379.714zM163.378 436.030l-16.088 22.152 364.71 264.826 364.71-264.828-16.086-22.154-348.624 253.148-348.622-253.144zM801.696 37.602h-579.39v402.478l289.694 210.356 289.696-210.358v-402.476zM0 37.598h31.346v-31.346h-31.346v31.346zM67.918 37.598h31.348v-31.346h-31.348v31.346zM923.69 37.598h31.346v-31.346h-31.346v31.346zM992.654 37.598h31.346v-31.346h-31.346v31.346zM642.008 421.546c-35.44 35.444-93.118 35.442-128.562 0-35.442-35.442-35.442-93.116 0.002-128.56 17.722-17.722 41.002-26.582 64.28-26.582 23.28 0 46.558 8.86 64.28 26.582h0.002c35.444 35.444 35.444 93.116-0.002 128.56zM619.844 315.152c-23.228-23.222-61.014-23.218-84.232 0-23.22 23.222-23.22 61.008 0 84.23 11.616 11.614 26.862 17.416 42.116 17.416 15.252 0 30.506-5.808 42.114-17.416 23.222-23.222 23.222-61.008 0.002-84.23zM680.252 462.808c-27.088 26.326-63.006 41.024-101.142 41.39-38.036 0.372-74.332-13.652-101.898-39.474-48.78-45.696-60.374-117.876-29.722-175.96l-135.576-135.576c-8.244-8.244-12.786-19.208-12.784-30.868 0-11.662 4.542-22.622 12.786-30.868 8.51-8.51 19.69-12.764 30.866-12.764 11.178 0 22.356 4.254 30.868 12.764l135.584 135.584c56.25-29.546 126.96-19.396 172.538 26.184 28.072 28.072 43.376 65.396 43.092 105.098-0.282 39.692-16.124 76.8-44.612 104.49zM659.606 275.382c-38.256-38.256-98.998-44.804-144.442-15.556l-10.626 6.84-153.052-153.050c-4.798-4.798-12.608-4.796-17.402 0-4.798 4.798-4.798 12.606 0 17.404l153.050 153.050-6.84 10.628c-30.238 46.982-22.518 108.868 18.348 147.15 21.378 20.024 49.398 31.010 79.022 31.010 0.382 0 0.764-0.002 1.148-0.006 30.046-0.288 58.31-11.838 79.594-32.524 22.422-21.794 34.894-51 35.116-82.238 0.222-31.242-11.822-60.614-33.916-82.708z" />
<glyph unicode="&#xe927;" glyph-name="house-4" data-tags="house-4" d="M833.042 417.316l34.528-25.072 52.922 72.884-408.492 296.622-408.492-296.622 52.924-72.884 34.528 25.072v-379.714h-54.078v-31.346h750.236v31.346h-54.076v379.714zM163.378 436.028l-16.088 22.154 364.71 264.828 364.71-264.83-16.086-22.154-348.624 253.148-348.622-253.146zM801.696 37.602h-178.104v56.828h-31.346v-56.828h-160.488v234.872h160.488v-72.51h31.346v103.856h-223.182v-266.22h-178.104v402.478l289.694 210.358 289.696-210.358v-402.476zM0 37.598h31.346v-31.346h-31.346v31.346zM67.918 37.598h31.348v-31.346h-31.348v31.346zM923.69 37.598h31.346v-31.346h-31.346v31.346zM992.654 37.598h31.346v-31.346h-31.346v31.346zM592.248 163.404h31.346v-31.346h-31.346v31.346z" />
<glyph unicode="&#xe928;" glyph-name="house" data-tags="house" d="M696.104 757.804l-13.914-27.996c55.722-27.694 104.498-69.062 141.054-119.636l25.334 18.314c-39.508 54.66-92.236 99.38-152.474 129.318zM622.464 786.010l-8.344-30.128c10.78-2.984 21.556-6.49 32.034-10.414l10.97 29.274c-11.336 4.248-22.998 8.038-34.66 11.268zM511.15 801.072c-224.948 0-408.75-179.44-415.846-402.696h-95.304l112.548-147.37 112.548 147.37h-98.51c7.084 206.014 176.854 371.434 384.564 371.434 21.102 0 42.27-1.722 62.922-5.116l5.072 30.85c-22.322 3.67-45.2 5.528-67.994 5.528zM161.884 367.116l-49.336-64.602-49.336 64.602h98.672zM798.904 369.62h98.508c-7.082-206.012-176.854-371.434-384.564-371.434-61.936 0-123.484 15.056-177.986 43.542-52.768 27.58-99.142 67.724-134.11 116.098l-25.334-18.314c37.792-52.28 87.922-95.674 144.966-125.488 58.952-30.812 125.506-47.098 192.466-47.098 224.948 0 408.75 179.44 415.846 402.696h95.3l-112.546 147.368-112.546-147.37zM862.116 400.882l49.336 64.6 49.336-64.6h-98.672zM427.592 423.546v-168.816h168.816v168.816h-168.816zM565.146 285.992h-106.292v106.292h106.292v-106.292zM560.988 167.822h31.262v-31.262h-31.262v31.262zM512 609.686l-157.956-102.202v94.672h18.944v-46.268h31.262v77.53h-81.468v-146.162l-82.5-53.38 16.982-26.248 65.518 42.392v-313.46h201.722v31.262h-170.46v302.426l157.956 102.204 157.956-102.204v-302.426h-40.202v-31.262h71.464v313.46l65.518-42.392 16.982 26.248z" />
<glyph unicode="&#xe929;" glyph-name="key" data-tags="key" d="M512.002 896c-110.588 0-200.56-89.97-200.56-200.558 0-38.396 10.89-75.718 31.492-107.924 18.26-28.546 43.338-51.936 72.918-68.114v-79.36l11.020-3.388c14.82-4.554 24.778-18.042 24.778-33.562s-9.958-29.002-24.778-33.56l-11.020-3.388v-108.794l29.334-29.334-29.334-29.336v-93.692l35.798-32.814v-42.136h-35.798v-79.698l96.148-78.342 96.152 78.344v569.058c29.582 16.178 54.658 39.568 72.918 68.114 20.602 32.208 31.492 69.528 31.492 107.924-0.002 110.59-89.972 200.56-200.56 200.56zM585.742 542.952l-8.798-4.264v-573.514l-16.048-13.076v202.182h-31.208v-227.612l-17.684-14.41-64.94 52.914v33.662h35.798v87.076l-35.798 32.814v67.034l42.26 42.262-42.26 42.258v73.904c21.806 11.214 35.798 33.636 35.798 58.908 0 25.274-13.99 47.698-35.798 58.914v76.682l-8.8 4.264c-58.080 28.144-95.61 88-95.61 152.49 0 93.38 75.97 169.35 169.352 169.35 93.38 0 169.35-75.972 169.35-169.35-0.004-64.492-37.532-124.344-95.614-152.488zM529.692 222.938h31.208v-31.208h-31.208v31.208zM529.692 527.74h31.208v-268.392h-31.208v268.392zM512.002 836.704c-31.55 0-57.216-25.668-57.216-57.216s25.666-57.216 57.216-57.216c31.55 0 57.216 25.668 57.216 57.216-0.002 31.548-25.668 57.216-57.216 57.216zM512.002 753.482c-14.342 0-26.008 11.666-26.008 26.008s11.666 26.006 26.008 26.006c14.342 0 26.006-11.666 26.006-26.006s-11.666-26.008-26.006-26.008z" />
<glyph unicode="&#xe92a;" glyph-name="ladder" data-tags="ladder" d="M853.334 384c0 47.786-37.546 85.334-85.334 85.334v136.534c47.786 0 85.334 37.546 85.334 85.334 0 47.786-37.546 85.334-85.334 85.334v34.13c0 47.788-37.546 85.334-85.334 85.334-47.786 0-85.334-37.546-85.334-85.334v-34.134h-170.666v34.134c0 47.788-37.546 85.334-85.332 85.334-47.788 0-85.334-37.546-85.334-85.334v-34.134c-47.786 0-85.334-37.546-85.334-85.334 0-47.786 37.546-85.334 85.334-85.334v-136.534c-47.786 0-85.334-37.546-85.334-85.334 0-47.786 37.546-85.334 85.334-85.334v-136.534c-47.786 0-85.334-37.546-85.334-85.334 0-47.786 37.546-85.334 85.334-85.334v-34.134c0-47.78 37.546-85.326 85.334-85.326 47.786 0 85.334 37.546 85.334 85.334v34.134h170.666v-34.134c0-47.786 37.546-85.334 85.334-85.334 47.786 0 85.332 37.546 85.332 85.334v34.134c47.786 0 85.334 37.546 85.334 85.334 0 47.786-37.546 85.334-85.334 85.334v136.534c47.786-0.004 85.334 37.544 85.334 85.33zM733.866 469.334h-102.4v136.534h102.4v-136.534zM426.666 469.334v136.534h170.666v-136.534h-170.666zM631.466 810.666c0 29.014 22.186 51.2 51.2 51.2s51.2-22.186 51.2-51.2v-34.134h-102.4v34.134zM290.134 810.666c0 29.014 22.186 51.2 51.2 51.2s51.2-22.186 51.2-51.2v-34.134h-102.4v34.134zM204.8 691.2c0 29.014 22.186 51.2 51.2 51.2h512c29.014 0 51.2-22.186 51.2-51.2s-22.186-51.2-51.2-51.2h-512c-29.014 0-51.2 22.186-51.2 51.2zM290.134 605.866h102.4v-136.534h-102.4v136.534zM204.8 384c0 29.014 22.186 51.2 51.2 51.2h512c29.014 0 51.2-22.186 51.2-51.2s-22.186-51.2-51.2-51.2h-512c-29.014 0-51.2 22.186-51.2 51.2zM426.666 162.134v136.534h170.666v-136.534h-170.666zM290.134 298.666h102.4v-136.534h-102.4v136.534zM392.534-42.666c0-29.014-22.186-51.2-51.2-51.2s-51.2 22.186-51.2 51.2v34.134h102.4v-34.134zM733.866-42.666c0-29.014-22.186-51.2-51.2-51.2s-51.2 22.186-51.2 51.2v34.134h102.4v-34.134zM819.2 76.8c0-29.014-22.186-51.2-51.2-51.2h-512c-29.014 0-51.2 22.186-51.2 51.2s22.186 51.2 51.2 51.2h512c29.014 0 51.2-22.186 51.2-51.2zM733.866 162.134h-102.4v136.534h102.4v-136.534zM341.334 674.134c10.24 0 17.066 6.826 17.066 17.066 0 8.534-6.826 17.066-17.066 17.066s-17.066-6.826-17.066-17.066 6.826-17.066 17.066-17.066zM341.334 366.934c10.24 0 17.066 6.826 17.066 17.066 0 8.534-6.826 17.066-17.066 17.066s-17.066-6.826-17.066-17.066 6.826-17.066 17.066-17.066zM341.334 93.866c-10.24 0-17.066-6.826-17.066-17.066s6.826-17.066 17.066-17.066 17.066 6.826 17.066 17.066c0 8.534-6.826 17.066-17.066 17.066zM682.666 93.866c-10.24 0-17.066-6.826-17.066-17.066s6.826-17.066 17.066-17.066c10.24 0 17.066 6.826 17.066 17.066 0.002 8.534-6.826 17.066-17.066 17.066zM682.666 366.934c10.24 0 17.066 6.826 17.066 17.066 0 8.534-6.826 17.066-17.066 17.066s-17.066-6.826-17.066-17.066 6.826-17.066 17.066-17.066zM682.666 674.134c10.24 0 17.066 6.826 17.066 17.066 0 8.534-6.826 17.066-17.066 17.066s-17.066-6.826-17.066-17.066 6.826-17.066 17.066-17.066z" />
<glyph unicode="&#xe92b;" glyph-name="lamp" data-tags="lamp" d="M496.326 40.5h31.346v-99.426h-31.346v99.426zM496.326-96.612h31.346v-31.388h-31.346v31.388zM644.762 538.046h-55.34v91.052h-61.75v266.902h-31.346v-266.902h-61.746v-91.052h-55.342l-178.414-324.39h185.572c7.748-62.438 61.104-110.936 125.608-110.936 64.502 0 117.856 48.498 125.606 110.936h185.57l-178.418 324.39zM465.926 597.75h92.15v-59.706h-92.15v59.706zM512 134.064c-47.19 0-86.452 34.496-93.954 79.59h187.904c-7.498-45.094-46.76-79.59-93.95-79.59zM253.84 245.002l143.932 261.696h228.456l143.932-261.696h-516.32zM608.402 73.802l22.165 22.165 70.303-70.303-22.165-22.165-70.303 70.303zM705.35-23.131l22.165 22.165 22.21-22.21-22.165-22.165-22.21 22.21zM323.068 25.695l70.303 70.303 22.165-22.165-70.303-70.303-22.165 22.165zM274.29-23.196l22.194 22.194 22.163-22.163-22.194-22.194-22.163 22.163z" />
<glyph unicode="&#xe92c;" glyph-name="letter" data-tags="letter" d="M293.318 644.958v-67.85h-293.318v-31.314h293.318v-146.136h-243.214v-31.314h243.214v-57.41h-197.286v-31.314h197.284v-156.574h730.684v521.912h-730.682zM992.686 154.356h-668.054v445.054l334.020-231.322 246.28 170.338-17.814 25.756-228.454-158.012-299.578 207.474h633.598v-459.288zM917.072 585.026l25.721 17.858 17.858-25.721-25.721-17.858-17.858 25.721zM0 222.206h31.316v-31.316h-31.316v31.316zM67.85 222.206h195.196v-31.316h-195.196v31.316zM0 488.384h31.316v-31.316h-31.316v31.316zM67.85 488.384h195.196v-31.316h-195.196v31.316z" />
<glyph unicode="&#xe92d;" glyph-name="line-chart" data-tags="line-chart" d="M769.068 652.672c3.722 7.654 5.818 16.242 5.818 25.31 0 32.018-26.050 58.068-58.068 58.068s-58.068-26.050-58.068-58.068c0-9.962 2.524-19.344 6.962-27.544l-145.172-145.172c-8.202 4.438-17.584 6.964-27.548 6.964-9.962 0-19.344-2.524-27.544-6.962l-43.818 43.818c4.438 8.202 6.964 17.584 6.964 27.546 0 32.018-26.048 58.068-58.068 58.068s-58.068-26.050-58.068-58.068c0-9.068 2.092-17.656 5.818-25.312l-140.54-140.54 22.394-22.4 139.268 139.268c9.004-5.742 19.68-9.086 31.126-9.086 10.568 0 20.478 2.852 29.026 7.806l43.186-43.182c-4.954-8.546-7.806-18.454-7.806-29.026 0-32.018 26.048-58.068 58.068-58.068 32.018 0 58.068 26.050 58.068 58.068 0 10.568-2.852 20.478-7.806 29.024l144.538 144.538c8.546-4.956 18.454-7.806 29.022-7.806 11.446 0 22.122 3.342 31.124 9.084l75.922-75.922 22.398 22.396-77.196 77.198zM370.528 550.236c-14.554 0-26.394 11.84-26.394 26.394s11.84 26.394 26.394 26.394 26.394-11.84 26.394-26.394-11.84-26.394-26.394-26.394zM492.996 427.768c-14.554 0-26.394 11.84-26.394 26.394s11.84 26.394 26.394 26.394 26.394-11.84 26.394-26.394-11.84-26.394-26.394-26.394zM716.818 651.59c-14.554 0-26.394 11.84-26.394 26.394s11.84 26.394 26.394 26.394 26.394-11.84 26.394-26.394-11.838-26.394-26.394-26.394zM570.068 813.65v82.35h-114.022v-82.35h-327.29v-546.886h34.84v-49.62h182.15l-171.61-330.55 28.11-14.594 113.96 219.506h179.958v-149.918h31.674v275.554h116.838l48.782-93.964h-65.322v-31.672h81.766l113.96-219.506 28.11 14.594-171.612 330.548h180.042v49.62h34.84v546.888h-325.174zM487.718 864.328h50.676v-50.676h-50.676v50.676zM496.164 123.18h-163.512l48.782 93.964h114.73v-93.964zM828.73 248.816h-633.46v17.948h633.46v-17.948zM863.57 298.436h-703.14v483.542h703.14v-483.542zM559.514 123.18h31.672v-31.672h-31.672v31.672z" />
<glyph unicode="&#xe92e;" glyph-name="mailbox" data-tags="mailbox" d="M911.334 496.39h31.22v-31.22h-31.22v31.22zM548.136 721.17v-197.724h330.926v197.724h-149.854v58.278h-374.076v116.552h-113.986v-31.22h82.768v-238.308h31.22v121.756h115.998v-251.838h-358.466v251.838h182.592v31.22h-213.812v-314.276h242.466v-228.422h31.22v228.42h33.3v-561.95h-33.3v228.422h-31.22v-259.642h95.74v593.17h454.208v31.22h-371.512v251.838h195.642v-27.058h-149.854zM847.844 554.666h-268.488v124.364l134.244-74.58 134.244 74.58v-124.364zM803.212 689.952l-89.612-49.786-89.61 49.784h179.222zM323.908 200.326h31.22v-31.22h-31.22v31.22z" />
<glyph unicode="&#xe92f;" glyph-name="mansion" data-tags="mansion" d="M592.248 113.768h31.346v-31.348h-31.346v31.348zM888.164-12.016v608.13h60.234l-80.718 215.25h-711.36l-80.718-215.25h60.234v-608.13h-67.918v-31.346h887.118v31.346h-66.872zM120.836 627.462l57.208 152.556h667.91l57.208-152.556h-212.030l-179.132 128.248-179.13-128.248h-212.034zM744.814 550.474l-18.248-25.488-214.566 153.616-214.566-153.616-18.248 25.488 232.814 166.682 232.814-166.682zM856.816-12.016h-233.226v56.828h-31.346v-56.828h-160.486v234.872h160.486v-72.51h31.346v103.856h-223.18v-266.22h-233.226v608.132h121.902l-53.634-38.4 54.744-76.464 221.804 158.8 221.806-158.8 54.744 76.464-53.636 38.4h121.902v-608.13zM0-12.016h31.346v-31.346h-31.346v31.346zM992.654-12.016h31.346v-31.346h-31.346v31.346zM512 571.036c-46.092 0-83.592-37.5-83.592-83.592s37.5-83.592 83.592-83.592 83.592 37.5 83.592 83.592c0 46.094-37.5 83.592-83.592 83.592zM512 435.2c-28.808 0-52.244 23.438-52.244 52.244 0 28.808 23.438 52.244 52.244 52.244s52.244-23.438 52.244-52.244c0-28.806-23.436-52.244-52.244-52.244zM669.78 449.828v-155.69h31.346v124.344h81.502v-124.344h31.348v155.69zM210.024 449.828v-155.69h31.348v124.344h81.502v-124.344h31.346v155.69zM669.78 242.938v-155.688h31.346v124.342h81.502v-124.342h31.348v155.688zM210.024 242.938v-155.688h31.348v124.342h81.502v-124.342h31.346v155.688z" />
<glyph unicode="&#xe930;" glyph-name="measuring-tape" data-tags="measuring-tape" d="M1006.932 119.467h-153.6v34.134c0 32.428-18.774 51.199-51.199 51.199h-17.066v187.733c0 213.333-153.6 375.467-358.399 375.467s-358.401-162.134-358.401-375.467v-187.733h-17.068c-32.428 0-51.199-18.774-51.199-51.199v-102.401c0-32.428 18.774-51.199 51.199-51.199h750.932c32.428 0 51.199 18.774 51.199 51.199v34.134h136.534v-51.199c0-10.24 6.826-17.066 17.066-17.066s17.066 6.826 17.066 17.066v68.267c0.004 10.24-6.824 17.066-17.064 17.066zM819.199 51.202c0-11.946-5.12-17.066-17.066-17.066h-750.934c-11.946 0-17.066 5.12-17.066 17.066v102.401c0 11.946 5.12 17.066 17.066 17.066h34.134c10.24 0 17.066 6.826 17.066 17.066v204.799c0 194.559 139.946 341.333 324.266 341.333s324.266-146.774 324.266-341.333v-204.799c0-10.24 6.826-17.066 17.066-17.066h34.134c11.946 0 17.066-5.12 17.066-17.066v-102.401zM426.666 682.667c-150.186 0-273.066-122.88-273.066-273.066s122.88-273.066 273.066-273.066 273.066 122.88 273.066 273.066c0 150.186-122.88 273.066-273.066 273.066zM426.666 170.668c-131.414 0-238.933 107.521-238.933 238.933s107.521 238.933 238.933 238.933 238.933-107.521 238.933-238.933-107.519-238.933-238.933-238.933zM426.666 597.334c-10.24 0-17.066-6.826-17.066-17.066s6.826-17.066 17.066-17.066c85.333 0 153.6-68.267 153.6-153.6 0-10.24 6.826-17.066 17.066-17.066s17.066 6.826 17.066 17.066c0.002 104.105-83.625 187.731-187.731 187.731zM426.666 256.001c-85.333 0-153.6 68.267-153.6 153.6 0 10.24-6.826 17.066-17.066 17.066s-17.066-6.826-17.066-17.066c0-104.107 83.627-187.733 187.733-187.733 10.24 0 17.066 6.826 17.066 17.066s-6.828 17.068-17.068 17.068z" />
<glyph unicode="&#xe931;" glyph-name="nail" data-tags="nail" d="M629.76 885.76c-1.706 6.826-8.534 10.24-15.36 10.24h-204.8c-6.826 0-13.654-3.414-15.36-10.24-3.414-6.826-1.706-13.654 3.414-18.774 40.96-40.96 63.146-95.574 63.146-153.6v-614.4c0-73.386 11.946-145.066 35.84-215.040 1.706-6.826 8.534-11.946 15.36-11.946s13.654 5.12 17.066 11.946c22.188 69.974 34.134 141.654 34.134 215.040v614.4c0 58.026 22.186 112.64 63.146 153.6 5.12 5.12 6.828 11.948 3.414 18.774zM529.066 713.386v-614.4c0-51.2-5.12-100.694-17.066-148.48-11.946 49.494-17.066 98.986-17.066 148.48v614.4c0 54.614-17.066 105.814-47.786 148.48h129.706c-30.72-42.666-47.788-93.866-47.788-148.48z" />
<glyph unicode="&#xe932;" glyph-name="padlock-1" data-tags="padlock-1" d="M511.998 407.126c-117.796 0-213.632-95.834-213.632-213.632 0-117.796 95.834-213.632 213.632-213.632 117.796 0 213.632 95.834 213.632 213.632s-95.834 213.632-213.632 213.632zM511.998 11.28c-100.474 0-182.214 81.742-182.214 182.214s81.742 182.214 182.214 182.214 182.216-81.742 182.216-182.214-81.74-182.214-182.216-182.214zM639.344 540.116h31.416v-31.416h-31.416v31.416zM511.998 312.296c-41.010 0-74.372-33.406-74.372-74.472 0-24.688 12.012-47.324 31.906-61.136v-101.994h84.936v101.994c19.894 13.814 31.906 36.45 31.906 61.136-0.002 41.064-33.366 74.472-74.376 74.472zM531.57 199.504l-8.52-4.386v-89.008h-22.102v89.008l-8.52 4.386c-14.424 7.422-23.386 22.106-23.386 38.322 0 23.74 19.27 43.056 42.956 43.056s42.956-19.314 42.956-43.056c0.002-16.216-8.96-30.9-23.384-38.322zM732.522 427.21v247.924c0 121.786-98.926 220.866-220.524 220.866s-220.522-99.080-220.522-220.866v-247.926c-62.13-58.654-100.97-141.73-100.97-233.714 0-177.274 144.222-321.494 321.494-321.494s321.494 144.22 321.494 321.494c-0.002 91.986-38.84 175.060-100.972 233.716zM322.89 675.134h0.002c0 104.464 84.832 189.45 189.106 189.45s189.106-84.986 189.106-189.45v-221.816c-53.106 38.758-118.476 61.67-189.106 61.67-45.22 0-88.28-9.404-127.354-26.328v186.474c0 70.356 57.13 127.592 127.354 127.592s127.354-57.236 127.354-127.592v-98.36h31.416v98.36c0 87.676-71.224 159.008-158.77 159.008s-158.77-71.332-158.77-159.008v-202.168c-10.498-5.986-20.62-12.554-30.338-19.648v221.816zM511.998-96.584c-159.95 0-290.078 130.128-290.078 290.078s130.128 290.078 290.078 290.078 290.078-130.128 290.078-290.078-130.126-290.078-290.078-290.078z" />
<glyph unicode="&#xe933;" glyph-name="padlock" data-tags="padlock" d="M639.080 518.772h31.346v-31.348h-31.346v31.348zM732.034 434.134v241.488c0 121.518-98.704 220.378-220.034 220.378s-220.036-98.86-220.036-220.378v-241.488h-94.478v-228.3h31.346v196.952h566.334v-499.44h-566.334v196.954h-31.346v-228.3h629.028v562.134h-94.48zM700.688 434.134h-315.76v241.488c0 70.198 57.004 127.31 127.072 127.31s127.072-57.112 127.072-127.31v-120.282h31.346v120.282c0 87.484-71.066 158.658-158.42 158.658-87.352 0-158.42-71.174-158.42-158.658v-241.488h-30.27v241.488c0 104.232 84.648 189.030 188.69 189.030s188.688-84.798 188.688-189.030v-241.488zM197.486 169.274h31.346v-31.346h-31.346v31.346zM511.998 271.604c-40.92 0-74.208-33.334-74.208-74.306 0-24.634 11.982-47.216 31.834-61.002v-101.768h84.75v101.768c19.85 13.784 31.836 36.368 31.836 61.002-0.002 40.974-33.292 74.306-74.212 74.306zM531.53 159.064l-8.502-4.374v-88.814h-22.054v88.814l-8.502 4.374c-14.394 7.404-23.334 22.054-23.334 38.234 0 23.69 19.228 42.96 42.862 42.96 23.636 0 42.864-19.272 42.864-42.96 0-16.178-8.94-30.826-23.334-38.234z" />
<glyph unicode="&#xe934;" glyph-name="paint-brush" data-tags="paint-brush" d="M512-25.6c37.546 0 68.266 30.72 68.266 68.266s-30.72 68.266-68.266 68.266c-37.546 0-68.266-30.72-68.266-68.266s30.72-68.266 68.266-68.266zM512 76.8c18.774 0 34.134-15.36 34.134-34.134s-15.36-34.134-34.134-34.134-34.134 15.36-34.134 34.134 15.36 34.134 34.134 34.134zM989.866 674.134v170.666c0 29.014-22.186 51.2-51.2 51.2h-853.332c-29.014 0-51.2-22.186-51.2-51.2v-170.666c-10.24 0-17.066-6.826-17.066-17.066v-153.6c0-10.24 6.826-17.066 17.066-17.066v-119.466c0-47.786 37.546-85.334 85.334-85.334h170.666c20.48 0 40.96-8.534 54.614-25.6 11.946-15.36 18.774-35.84 15.36-56.32l-18.774-114.346c-11.946-69.974 18.774-143.36 78.506-184.32 27.306-18.776 59.734-29.016 92.16-29.016s64.854 8.534 93.866 29.014c58.026 42.666 90.454 114.346 78.506 186.026l-18.774 114.346c-3.414 20.48 1.706 40.96 15.36 56.32 11.946 15.36 32.426 23.894 52.906 23.894h170.666c47.786 0 85.334 37.546 85.334 85.334v119.466c10.24 0 17.066 6.826 17.066 17.066v153.6c0.004 10.24-6.824 17.068-17.064 17.068zM51.2 640h153.6v-17.066c0-11.734 3-22.8 8.27-32.47 1.582-2.902 3.366-5.678 5.338-8.308 2.628-3.508 5.582-6.756 8.82-9.7 4.046-3.68 8.532-6.882 13.368-9.518 2.902-1.582 5.928-2.958 9.060-4.11s6.372-2.082 9.696-2.766c1.108-0.228 2.226-0.43 3.354-0.604 2.254-0.346 4.542-0.582 6.862-0.702 1.16-0.060 2.326-0.090 3.5-0.090 37.546 0 68.266 30.72 68.266 68.266v17.068h631.466v-119.466h-921.6v119.466zM955.734 844.8v-170.666h-614.4v73.386c10.24-5.12 22.186-6.826 32.426-5.12 16.332 1.922 31.042 10.874 40.782 24.118 7.58 10.016 12.126 22.39 12.126 35.616v59.732h512c10.238 0 17.066-6.826 17.066-17.066zM392.534 803.84c0-9.368-4.822-17.93-11.706-22.936-3.752-2.532-8.144-4.086-12.766-4.31-4.138 0.164-7.846 0.808-11.118 2.134-2.772 1.25-5.308 2.992-7.502 5.096-4.874 5.066-8.106 11.68-8.106 18.31v25.6c0 10.24-6.826 17.066-17.066 17.066s-17.066-6.826-17.066-17.066v-204.802c0-18.774-15.36-34.134-34.134-34.134s-34.134 15.36-34.134 34.134v187.734c0 10.24-6.826 17.066-17.066 17.066s-17.066-6.826-17.066-17.066v-51.2c0-14.070-8.628-26.222-20.856-31.428-0.034-0.012-0.066-0.026-0.1-0.040-0.38-0.16-0.778-0.282-1.164-0.428-3.904-1.328-8.17-2.102-12.782-2.198-0.608 0.014-1.212 0.046-1.812 0.092-16.712 2.136-31.552 17.288-31.552 37.416v98.986h256v-58.026zM68.266 844.8c0 8.534 8.534 17.066 17.066 17.066h17.068v-102.4c0-28.424 17.612-52.924 42.458-63.156 0.6-0.254 1.212-0.484 1.822-0.722 0.204-0.078 0.402-0.164 0.606-0.238 6.29-2.376 12.996-3.818 19.966-4.15 0.86 0 1.718 0.006 2.576 0.022 0.28-0.004 0.556-0.022 0.836-0.022 2.084 0 4.164 0.138 6.24 0.338 10.274 0.764 20.078 2.986 27.894 8.196v-25.6h-136.532v170.666zM957.44 366.934c0-29.014-22.186-51.2-51.2-51.2h-170.666c-30.72 0-59.734-13.654-80.214-37.546-20.48-22.188-29.014-52.908-23.894-83.628l18.774-114.346c8.534-58.026-17.066-117.76-64.854-151.894-42.666-30.72-102.4-30.72-145.066 0-49.494 34.134-73.386 93.866-64.854 151.894l18.774 114.346c5.12 29.014-3.414 59.734-23.894 83.626-20.48 23.894-49.494 37.546-80.214 37.546h-170.666c-22.982 0-41.666 13.926-48.448 34.134h48.448c10.24 0 17.066 6.826 17.066 17.066s-6.826 17.068-17.066 17.068h-51.2v34.134h85.334c10.24 0 17.066 6.826 17.066 17.066s-6.826 17.066-17.066 17.066h-85.334v34.134h889.174v-119.466z" />
<glyph unicode="&#xe935;" glyph-name="paint-roller" data-tags="paint-roller" d="M904.534 775.074v69.726c0 29.014-22.186 51.2-51.2 51.2h-733.868c-29.014 0-51.2-22.186-51.2-51.2v-68.266h-17.066c-10.24 0-17.066-6.826-17.066-17.066s6.826-17.068 17.066-17.068h17.066v-68.266c0-29.014 22.186-51.2 51.2-51.2h733.866c29.014 0 51.2 22.186 51.2 51.2v66.090c29.358-7.628 51.2-34.432 51.2-66.092v-68.266c0-32.426-23.894-61.44-54.614-68.266-13.654-3.414-230.4-22.186-372.054-34.134-37.546 0-68.266-30.72-68.266-68.266v-102.4h-102.4c-5.12 0-10.24-3.414-13.654-6.826s-5.12-8.534-3.414-13.654l17.066-85.334c1.706-8.534 8.534-13.654 17.066-13.654h17.066v-256c0-47.786 37.546-85.334 85.334-85.334 47.786 0 85.334 37.546 85.334 85.334v256h17.066c8.534 0 15.36 5.12 17.066 13.654l17.066 85.334c1.706 5.12 0 10.24-3.414 13.654-3.414 5.12-8.534 6.826-13.654 6.826h-102.4v102.4c0 18.774 15.36 34.134 35.84 34.134 59.734 5.12 361.814 30.72 377.174 34.134 47.786 10.24 81.92 52.906 81.92 102.4v68.266c0.006 50.506-37.060 92.75-85.326 100.94zM853.334 657.066h-733.868c-10.24 0-17.066 6.826-17.066 17.066v17.068h170.666c10.24 0 17.066 6.826 17.066 17.066s-6.826 17.066-17.066 17.066h-170.666v68.268h341.334c10.24 0 17.066 6.826 17.066 17.066s-6.826 17.066-17.066 17.066h-341.334v17.068c0 8.534 8.534 17.066 17.066 17.066h733.866c10.24 0 17.066-6.826 17.066-17.066v-17.066h-119.466c-10.24 0-17.066-6.826-17.066-17.066s6.826-17.066 17.066-17.066h119.468v-68.266h-290.134c-10.24 0-17.066-6.826-17.066-17.066s6.826-17.066 17.066-17.066h290.134v-17.066c0-10.244-6.826-17.072-17.066-17.072zM566.614 247.466h-20.48c-10.24 0-17.066-6.826-17.066-17.066v-273.066c0-29.014-22.186-51.2-51.2-51.2s-51.2 22.186-51.2 51.2h34.132c10.24 0 17.066 6.826 17.066 17.066s-6.826 17.066-17.066 17.066h-34.134v34.134h34.134c10.24 0 17.066 6.826 17.066 17.066s-6.826 17.066-17.066 17.066h-34.134v170.668c0 10.24-6.826 17.066-17.066 17.066h-20.48l-10.24 51.2h197.974l-10.24-51.2z" />
<glyph unicode="&#xe936;" glyph-name="parking" data-tags="parking" d="M600.964 726.392c-4.016 10.026-9.536 18.996-16.552 26.894-7.024 7.9-15.364 14.296-25.016 19.186-9.656 4.89-20.252 7.336-31.784 7.336h-110.594v-267.076h26.336v98.554h86.514c11.536 0 22.008 2.38 31.412 7.148 9.404 4.758 17.49 11.030 24.26 18.808 6.77 7.77 12.038 16.74 15.802 26.896 3.76 10.154 5.64 20.748 5.64 31.786 0 10.278-2.008 20.432-6.018 30.468zM576.884 672.788c-2.506-7.4-6.016-13.918-10.53-19.56s-9.968-10.154-16.364-13.54c-6.396-3.386-13.482-5.080-21.254-5.080h-85.386v121.878h83.132c7.27 0 14.23-1.57 20.878-4.702 6.642-3.138 12.414-7.462 17.302-12.978 4.89-5.52 8.776-11.978 11.662-19.372 2.882-7.4 4.326-15.234 4.326-23.51-0.002-8.030-1.26-15.742-3.766-23.136zM557.976-96.654h31.348v-31.346h-31.348v31.346zM625.894-96.654h86.726v-31.346h-86.726v31.346zM262.27 553.274h31.346v-31.346h-31.346v31.346zM262.27 896v-306.156h31.346v274.81h436.768v-436.768h-436.768v56.424h-31.346v-87.772h234.056v-493.192h-161.958v-31.346h193.306v524.538h234.056v499.462z" />
<glyph unicode="&#xe937;" glyph-name="parquet" data-tags="parquet" d="M375.466 179.2c-10.24 0-17.066-6.826-17.066-17.066s6.826-17.066 17.066-17.066 17.066 6.826 17.066 17.066-6.826 17.066-17.066 17.066zM307.2 179.2c-10.24 0-17.066-6.826-17.066-17.066s6.826-17.066 17.066-17.066 17.066 6.826 17.066 17.066-6.826 17.066-17.066 17.066zM307.2 247.466c10.24 0 17.066 6.826 17.066 17.066s-6.826 17.066-17.066 17.066c-8.534 0-17.066-8.534-17.066-17.066 0-10.238 6.826-17.066 17.066-17.066zM375.466 247.466c10.24 0 17.066 6.826 17.066 17.066s-6.826 17.066-17.066 17.066-17.066-8.534-17.066-17.066c0-10.238 6.826-17.066 17.066-17.066zM887.466 332.8c10.24 0 17.066 6.826 17.066 17.066s-6.826 17.066-17.066 17.066-17.066-6.826-17.066-17.066c0-10.24 6.826-17.066 17.066-17.066zM819.2 332.8c10.24 0 17.066 6.826 17.066 17.066s-6.826 17.066-17.066 17.066c-10.24 0-17.066-6.826-17.066-17.066s6.826-17.066 17.066-17.066zM819.2 435.2c10.24 0 17.066 6.826 17.066 17.066s-6.826 17.066-17.066 17.066c-8.534 0-17.066-8.534-17.066-17.066 0-10.24 6.826-17.066 17.066-17.066zM887.466 435.2c10.24 0 17.066 6.826 17.066 17.066s-6.826 17.066-17.066 17.066c-8.534 0-17.066-8.534-17.066-17.066 0-10.24 6.826-17.066 17.066-17.066zM938.666 896h-853.332c-10.24 0-17.066-6.826-17.066-17.066v-989.866c0-10.24 6.826-17.066 17.066-17.066h853.332c10.24 0 17.066 6.826 17.066 17.066v989.866c0.002 10.24-6.826 17.066-17.066 17.066zM921.6 418.134h-136.534v443.732h136.534v-443.732zM580.266 588.8h-136.534v273.066h136.534v-273.066zM409.6 571.734v-341.334h-136.534v631.466h136.534v-290.132zM102.4 861.866h136.534v-955.734h-136.534v955.734zM273.066 196.266h136.534v-290.134h-136.534v290.134zM443.734 213.334v341.332h136.534v-648.534h-136.534v307.202zM614.4 571.734v290.132h136.534v-955.734h-136.534v665.602zM921.6-93.866h-136.534v477.866h136.534v-477.866zM546.134 537.6c-10.24 0-17.066-6.826-17.066-17.066s6.826-17.066 17.066-17.066 17.066 6.826 17.066 17.066-6.826 17.066-17.066 17.066zM477.866 537.6c-10.24 0-17.066-6.826-17.066-17.066s6.826-17.066 17.066-17.066c10.24 0 17.066 6.826 17.066 17.066s-6.826 17.066-17.066 17.066zM477.866 605.866c10.24 0 17.066 6.826 17.066 17.066s-6.826 17.068-17.066 17.068c-10.24 0-17.066-8.534-17.066-17.066 0-10.24 6.826-17.068 17.066-17.068zM546.134 605.866c10.24 0 17.066 6.826 17.066 17.066s-6.826 17.068-17.066 17.068-17.066-8.534-17.066-17.066c-0.002-10.24 6.826-17.068 17.066-17.068zM204.8 844.8c-10.24 0-17.066-8.534-17.066-17.066 0-8.534 6.826-17.066 17.066-17.066s17.066 6.826 17.066 17.066c0 10.24-6.826 17.066-17.066 17.066zM136.534 844.8c-10.24 0-17.066-8.534-17.066-17.066 0-8.534 6.826-17.066 17.066-17.066s17.066 6.826 17.066 17.066c0 10.24-6.826 17.066-17.066 17.066zM204.8-42.666c-10.24 0-17.066-6.826-17.066-17.066s6.826-17.066 17.066-17.066 17.066 6.826 17.066 17.066-6.826 17.066-17.066 17.066zM136.534-42.666c-10.24 0-17.066-6.826-17.066-17.066s6.826-17.066 17.066-17.066 17.066 6.826 17.066 17.066-6.826 17.066-17.066 17.066zM716.8 844.8c-10.24 0-17.066-6.826-17.066-17.066s6.826-17.066 17.066-17.066c10.24 0 17.066 6.826 17.066 17.066s-6.826 17.066-17.066 17.066zM648.534 844.8c-10.24 0-17.066-6.826-17.066-17.066s6.826-17.066 17.066-17.066 17.066 6.826 17.066 17.066c0 10.24-6.826 17.066-17.066 17.066zM716.8-42.666c-10.24 0-17.066-6.826-17.066-17.066s6.826-17.066 17.066-17.066c10.24 0 17.066 6.826 17.066 17.066s-6.826 17.066-17.066 17.066zM648.534-42.666c-10.24 0-17.066-6.826-17.066-17.066s6.826-17.066 17.066-17.066 17.066 6.826 17.066 17.066-6.826 17.066-17.066 17.066z" />
<glyph unicode="&#xe938;" glyph-name="pipe-1" data-tags="pipe-1" d="M989.866 571.734h-68.267c-18.774 0-34.134-15.36-34.134-34.134v-17.066h-151.894c-49.493 0-97.281 10.24-138.24 30.72-52.907 25.6-116.052 25.6-168.96 0-40.959-20.48-88.747-30.72-138.24-30.72h-153.598v17.066c0 18.774-15.36 34.134-34.134 34.134h-68.267c-18.774 0-34.134-15.362-34.134-34.134v-307.2c0-18.774 15.36-34.134 34.134-34.134h68.267c18.774 0 34.134 15.36 34.134 34.134v17.066h153.6c49.493 0 97.281-10.24 138.24-30.72 25.6-13.654 54.613-20.48 83.627-20.48 30.72 0 58.027 6.826 83.627 20.48 40.959 20.48 88.747 30.72 138.24 30.72h153.6v-17.066c0-18.774 15.36-34.134 34.134-34.134h68.267c18.774 0 34.134 15.36 34.134 34.134v307.2c-0.002 18.772-15.364 34.134-34.136 34.134zM102.401 230.401h-68.267v307.2h68.267v-307.2zM735.572 281.6c-54.613 0-107.521-11.946-153.6-34.134-44.373-22.186-95.573-22.186-138.24 0-46.079 22.186-98.987 34.134-153.6 34.134h-153.598v204.799h153.6c54.613 0 107.521 11.946 153.6 34.134 42.667 22.186 95.573 22.186 138.24 0 46.079-22.186 98.987-34.134 153.6-34.134h151.894v-34.134h-68.267c-10.24 0-17.066-6.826-17.066-17.066s6.826-17.066 17.066-17.066h68.267v-136.534h-151.896zM989.866 230.401h-68.267v26.065c1.1 2.338 1.706 5.051 1.706 8.068v238.933c0 3.019-0.608 5.73-1.706 8.068v26.063h68.267v-307.198zM634.879 465.92c-23.894 5.12-47.787 15.36-69.973 25.6-34.134 17.066-75.093 17.066-107.521 0-22.186-10.24-46.079-18.774-69.973-25.6-8.534-1.706-13.654-11.946-11.946-20.48s10.24-13.654 17.066-13.654c1.706 0 3.414 0 3.414 1.706 27.308 6.826 52.907 17.066 76.799 29.014 23.894 11.946 52.907 11.946 76.801 0s49.493-22.186 76.801-29.014c8.534-3.414 18.774 3.414 20.48 11.946 3.412 8.536-3.414 18.776-11.948 20.482zM511.999 622.934c10.24 0 17.066 6.826 17.066 17.066v68.267c0 10.24-6.826 17.066-17.066 17.066s-17.066-6.826-17.066-17.066v-68.267c0-10.24 6.826-17.066 17.066-17.066zM511.999 145.068c-10.24 0-17.066-6.826-17.066-17.066v-68.267c0-10.24 6.826-17.066 17.066-17.066s17.066 6.826 17.066 17.066v68.267c0.002 10.238-6.826 17.066-17.066 17.066zM699.732 554.667c5.12 0 8.534 1.706 11.946 5.12l49.493 49.493c6.826 6.826 6.826 17.066 0 23.894-6.826 6.826-17.066 6.826-23.894 0l-49.491-49.493c-6.826-6.826-6.826-17.066 0-23.894 3.412-3.414 6.826-5.12 11.946-5.12zM312.32 208.213l-47.787-47.787c-6.826-6.826-6.826-17.066 0-23.894 3.414-3.414 6.826-5.12 11.946-5.12 3.414 0 8.534 1.706 11.946 5.12l47.787 47.787c6.826 6.826 6.826 17.066 0 23.894s-17.066 6.828-23.892 0zM314.026 559.787c3.414-3.414 6.826-5.12 11.946-5.12s8.534 1.706 11.946 5.12c6.826 6.826 6.826 17.066 0 23.894l-49.493 49.493c-6.826 6.826-17.066 6.826-23.894 0-6.826-6.826-6.826-17.066 0-23.894l49.495-49.493zM715.092 208.213c-6.826 6.826-17.066 6.826-23.894 0-6.826-6.826-6.826-17.066 0-23.894l47.787-47.787c3.414-3.414 6.826-5.12 11.946-5.12 3.414 0 8.534 1.706 11.946 5.12 6.826 6.826 6.826 17.066 0 23.894l-47.785 47.787z" />
<glyph unicode="&#xe939;" glyph-name="pipe" data-tags="pipe" d="M989.866 571.734h-68.267c-18.774 0-34.134-15.36-34.134-34.134v-17.066h-750.932v17.066c0 18.774-15.36 34.134-34.134 34.134h-68.267c-18.774 0-34.134-15.362-34.134-34.134v-307.2c0-18.774 15.36-34.134 34.134-34.134h68.267c18.774 0 34.134 15.36 34.134 34.134v17.066h750.932v-17.066c0-18.774 15.36-34.134 34.134-34.134h68.267c18.774 0 34.134 15.36 34.134 34.134v307.2c0 18.772-15.362 34.134-34.134 34.134zM102.401 230.401h-68.267v307.2h68.267v-307.2zM136.534 281.6v136.534h51.199c10.24 0 17.066 6.826 17.066 17.066s-6.826 17.066-17.066 17.066h-51.199v34.134h750.932v-34.134h-68.267c-10.24 0-17.066-6.826-17.066-17.066s6.826-17.066 17.066-17.066h68.267v-136.534h-750.932zM989.866 230.401h-68.267v307.2h68.267v-307.2zM460.8 452.268h-136.534c-10.24 0-17.066-6.826-17.066-17.066s6.826-17.066 17.066-17.066h136.534c10.24 0 17.066 6.826 17.066 17.066 0 10.238-6.826 17.066-17.066 17.066zM256.001 452.268c-10.24 0-17.066-6.826-17.066-17.066s6.826-17.066 17.066-17.066 17.066 6.826 17.066 17.066c0 10.238-6.826 17.066-17.066 17.066zM716.8 452.268h-170.668c-10.24 0-17.066-6.826-17.066-17.066s6.826-17.066 17.066-17.066h170.666c10.24 0 17.066 6.826 17.066 17.066 0.002 10.238-6.824 17.066-17.064 17.066z" />
<glyph unicode="&#xe93a;" glyph-name="placeholder" data-tags="placeholder" d="M234.88 29.352h31.020v-31.020h-31.020v31.020zM303.134-1.678h720.866l-138.568 461.158h-173.124c12.31 30.626 19.936 61.188 19.936 89.956 0 37.378-9.538 74.31-27.582 106.796l-27.118-15.062c15.494-27.89 23.682-59.612 23.682-91.734 0-116.362-147.652-275.684-189.222-318.224-41.57 42.518-189.216 201.762-189.216 318.224 0 104.336 84.884 189.22 189.22 189.22 35.226 0 69.592-9.74 99.382-28.166l16.318 26.382c-34.696 21.462-74.706 32.804-115.7 32.804-121.44 0-220.24-98.798-220.24-220.24 0-28.77 7.624-59.33 19.936-89.958h-173.136l-138.568-461.156h198.702v31.020h-156.99l119.928 399.118h164.040c57.662-115.884 169.234-224.284 175.56-230.376l10.76-10.362 10.76 10.362c6.328 6.094 117.9 114.494 175.56 230.376h164.040l119.928-399.12h-679.154v-31.018zM658.828 713.598l-20.688-23.116c6.822-6.106 13.258-12.764 19.124-19.784l23.804 19.892c-6.822 8.164-14.304 15.904-22.24 23.008zM512 671.448c-67.278 0-122.010-54.734-122.010-122.010s54.734-122.010 122.010-122.010 122.010 54.734 122.010 122.010-54.732 122.010-122.010 122.010zM512 458.446c-50.174 0-90.99 40.818-90.99 90.99s40.818 90.99 90.99 90.99c50.174 0 90.992-40.818 90.992-90.99s-40.818-90.99-90.992-90.99z" />
<glyph unicode="&#xe93b;" glyph-name="pliers" data-tags="pliers" d="M758.656 139.528l-31.278-1.742c0.758-13.618 1.142-27.498 1.142-41.254 0-56.296-6.276-111.030-18.654-162.68-2.654-11.076-9.64-20.184-19.676-25.65-9.964-5.424-21.81-6.374-32.504-2.612-19.404 6.826-30.416 27.102-25.61 47.156 10.864 45.37 16.374 93.746 16.374 143.788 0 95.384-21.156 188.142-58.040 254.488-5.894 10.602-12.194 20.552-18.726 29.57l-4.688 6.478-109.996-0.008-4.688-6.476c-6.528-9.014-12.826-18.96-18.72-29.564-36.886-66.348-58.040-159.104-58.040-254.488 0-50.044 5.51-98.422 16.376-143.788 4.806-20.058-6.204-40.334-25.61-47.156-10.694-3.762-22.546-2.814-32.506 2.612-10.034 5.464-17.020 14.572-19.674 25.648-12.38 51.646-18.656 106.38-18.656 162.682 0 110.172 24.194 214.37 68.126 293.394 13.97 25.132 29.676 47.188 46.714 65.744h101.674v31.326h-92.842v49.798h185.704v-71.776l4.38-4.548c18.764-19.496 35.982-43.228 51.166-70.542 23.948-43.078 41.994-93.274 53.642-149.194l30.67 6.388c-12.294 59.016-31.45 112.182-56.934 158.026-15.324 27.566-32.664 51.894-51.596 72.4v90.57h-18.038l19.59 127.638-72.82 200.244h-105.458l-73.198-200.246 19.908-127.632h-18.346v-90.566c-18.934-20.508-36.274-44.838-51.6-72.406-46.476-83.604-72.070-193.208-72.070-308.614 0-58.76 6.568-115.95 19.516-169.986 4.68-19.524 17.494-36.238 35.158-45.858 10.584-5.766 22.364-8.694 34.196-8.692 7.992 0 16.008 1.336 23.688 4.038 34.596 12.17 54.236 48.284 45.68 84.006-10.296 42.978-15.514 88.898-15.514 136.49 0 90.22 19.716 177.432 54.094 239.268 3.904 7.022 7.986 13.7 12.19 19.934l77.676 0.008c4.204-6.238 8.292-12.92 12.196-19.944 34.378-61.834 54.092-149.044 54.092-239.266 0-47.588-5.218-93.51-15.512-136.49-8.556-35.72 11.084-71.834 45.678-84.006 19.052-6.702 40.148-5.004 57.884 4.656 17.666 9.618 30.48 26.332 35.16 45.86 12.948 54.042 19.514 111.23 19.514 169.982-0.004 14.33-0.402 28.798-1.194 42.992zM527.654 864.674h15.322l62.576-172.086-19.104-124.466h-58.794v97.9c26.512 6.948 46.132 31.11 46.132 59.774s-19.618 52.824-46.132 59.774v79.104zM542.462 725.796c0-16.796-13.664-30.462-30.46-30.462s-30.462 13.664-30.462 30.462 13.664 30.462 30.462 30.462c16.794-0.002 30.46-13.666 30.46-30.462zM481.364 864.674h14.966v-79.11c-26.504-6.956-46.114-31.11-46.114-59.768s19.61-52.812 46.114-59.768v-97.906h-58.454l-19.414 124.472 62.902 172.080zM751.402 209.914l-30.97-4.712c1.534-10.072 2.866-20.37 3.964-30.614l31.146 3.334c-1.146 10.7-2.538 21.464-4.14 31.992z" />
<glyph unicode="&#xe93c;" glyph-name="plug" data-tags="plug" d="M785.066 674.134h-51.2v170.666c0 29.014-22.186 51.2-51.2 51.2s-51.2-22.186-51.2-51.2v-170.666h-238.932v170.666c0 29.014-22.186 51.2-51.2 51.2s-51.2-22.186-51.2-51.2v-170.666h-51.2c-10.24 0-17.066-6.826-17.066-17.066v-129.706c0-85.334 32.426-167.254 90.454-230.4 51.2-58.026 80.214-133.12 80.214-209.92v-44.374c0-47.786 37.546-85.334 85.334-85.334h17.066v-68.266c0-10.24 6.826-17.066 17.066-17.066s17.066 6.826 17.066 17.066v68.266h17.066c47.786 0 85.334 37.546 85.334 85.334v42.666c0 78.506 27.306 151.894 80.214 209.92 58.026 63.146 90.454 146.774 90.454 232.106v129.706c-0.002 10.24-6.83 17.068-17.070 17.068zM665.6 844.8c0 10.24 6.826 17.066 17.066 17.066s17.066-6.826 17.066-17.066v-170.666h-34.132v170.666zM324.266 844.8c0 8.534 6.826 17.066 17.066 17.066s17.066-6.826 17.066-17.066v-170.666h-34.134v170.666zM768 529.066c0-78.506-27.306-151.894-80.214-209.92-58.026-63.146-90.452-146.772-90.452-232.106v-44.374c0-29.014-22.186-51.2-51.2-51.2h-68.266c-29.014 0-51.2 22.186-51.2 51.2v42.666c0 85.334-32.426 168.96-90.454 232.106-51.2 58.028-80.214 133.122-80.214 209.922v112.64h512v-110.934zM631.466 520.534h-238.932c-10.24 0-17.066-6.826-17.066-17.066s6.826-17.066 17.066-17.066h238.934c10.24 0 17.066 6.826 17.066 17.066s-6.828 17.066-17.068 17.066zM631.466 452.266h-238.932c-10.24 0-17.066-6.826-17.066-17.066s6.826-17.066 17.066-17.066h238.934c10.24 0 17.066 6.826 17.066 17.066s-6.828 17.066-17.068 17.066z" />
<glyph unicode="&#xe93d;" glyph-name="portfolio" data-tags="portfolio" d="M762.745 335.254l29.26 8.13 8.391-30.202-29.26-8.13-8.391 30.202zM681.010 787.194h-338.020l-50.662-71.384 25.564-18.144 41.29 58.182h305.636l41.29-58.182 25.564 18.144zM167.184 678.786h31.346v-31.346h-31.346v31.346zM236.146 678.796v-31.346h756.506v-248.268l-163.020-45.302 8.392-30.204 107.9 29.984v-341.51h-867.85v341.51l303.312-84.296v-77.49h265.404v78.66l84.654 23.524-8.392 30.204-76.26-21.194v49.72h-265.404v-50.888l-350.040 97.282v248.268h99.266v31.346h-130.614v-303.438l46.728-12.986v-381.568h930.544v381.568l46.728 12.986v303.438h-787.854zM412.734 321.442h83.592v-48.534h31.346v48.534h87.772v-98.22h-202.71v98.22z" />
</font>
</defs>
</svg>
